<svg xmlns="http://www.w3.org/2000/svg" xmlns:xlink="http://www.w3.org/1999/xlink" viewBox="0 0 2614.96 1120.92"><defs><style>.cls-1{isolation:isolate;}.cls-2{fill:#e84d9e;}.cls-2,.cls-3,.cls-4,.cls-5,.cls-6,.cls-7,.cls-9{mix-blend-mode:multiply;}.cls-3{fill:#6cd9ea;}.cls-4{fill:#ffc84d;}.cls-5{fill:#bb93e2;}.cls-6{fill:#ff7443;}.cls-7{fill:#37e5f7;}.cls-29,.cls-30,.cls-8{fill:#fff;}.cls-9{opacity:0.69;fill:url(#radial-gradient);}.cls-10{fill:#373737;}.cls-10,.cls-11,.cls-12,.cls-13,.cls-14,.cls-15,.cls-16,.cls-17,.cls-18,.cls-19,.cls-20,.cls-21,.cls-22,.cls-23,.cls-24,.cls-25,.cls-26,.cls-27,.cls-28,.cls-29{fill-rule:evenodd;}.cls-11{fill:#454545;}.cls-12{fill:#555;}.cls-13{fill:#0b6173;}.cls-14{fill:#202020;}.cls-15{fill:#0f8da8;}.cls-16{fill:#0c7389;}.cls-17{fill:#094755;}.cls-18{fill:#ddd;}.cls-19{fill:#c6c6c6;}.cls-20{fill:#a5a5a5;}.cls-21{fill:#666;}.cls-22{fill:#50d3ef;}.cls-23{fill:#8ce2f4;}.cls-24{fill:#898989;}.cls-25{fill:#1099b6;}.cls-26{fill:#15c1e6;}.cls-27{fill:#b2b2b2;}.cls-28{fill:#0e849c;}.cls-30{opacity:0.5;}.cls-31{fill:#ff9376;}</style><radialGradient id="radial-gradient" cx="1288.44" cy="1749.75" r="367.95" gradientTransform="translate(0 775.43) scale(1 0.14)" gradientUnits="userSpaceOnUse"><stop offset="0.12" stop-color="#6c6c6c"/><stop offset="0.17" stop-color="#797979"/><stop offset="0.37" stop-color="#a8a8a8"/><stop offset="0.55" stop-color="#cecece"/><stop offset="0.73" stop-color="#e9e9e9"/><stop offset="0.88" stop-color="#f9f9f9"/><stop offset="1" stop-color="#fff"/></radialGradient></defs><title>app-foundry</title><g class="cls-1"><g id="Layer_1" data-name="Layer 1"><polygon class="cls-2" points="431.41 649.98 376.89 555.56 431.41 461.13 540.44 461.13 594.96 555.56 540.44 649.98 431.41 649.98"/><polygon class="cls-3" points="322.37 649.98 267.85 555.56 322.37 461.13 431.41 461.13 485.93 555.56 431.41 649.98 322.37 649.98"/><polygon class="cls-4" points="267.52 744.41 213.01 649.98 267.52 555.56 376.56 555.56 431.08 649.98 376.56 744.41 267.52 744.41"/><polygon class="cls-3" points="845.8 599.96 791.28 505.53 845.8 411.1 954.83 411.1 1009.35 505.53 954.83 599.96 845.8 599.96"/><polygon class="cls-2" points="900.4 694.38 845.89 599.96 900.4 505.53 1009.44 505.53 1063.96 599.96 1009.44 694.38 900.4 694.38"/><path class="cls-2" d="M1033.18,735.51H876.66l-.16-.28L798.4,600l.16-.28,78.1-135.28h156.52l.16.28L1111.45,600l-.16.28ZM877.3,734.4h155.24L1110.16,600l-77.62-134.44H877.3L799.68,600Z"/><polygon class="cls-5" points="917.55 847.97 888.02 796.83 917.55 745.68 917.55 745.68 947.08 796.83 917.55 847.97 917.55 847.97"/><polygon class="cls-3" points="1084.26 441.89 1054.73 390.75 1084.26 339.6 1084.26 339.6 1113.78 390.75 1084.26 441.89 1084.26 441.89"/><polygon class="cls-3" points="1084.26 964.39 1054.73 913.25 1084.26 862.1 1084.26 862.1 1113.78 913.25 1084.26 964.39 1084.26 964.39"/><polygon class="cls-6" points="283.16 835.02 261.11 796.83 283.16 758.63 283.16 758.63 305.22 796.83 283.16 835.02 283.16 835.02"/><polygon class="cls-6" points="63.56 770.55 41.51 732.36 63.56 694.16 63.56 694.16 85.62 732.36 63.56 770.55 63.56 770.55"/><polygon class="cls-6" points="207.11 395.54 185.05 357.33 207.11 319.14 207.11 319.14 229.16 357.33 207.11 395.54 207.11 395.54"/><polygon class="cls-6" points="526.74 1014.94 504.68 976.74 526.74 938.55 526.74 938.55 548.79 976.74 526.74 1014.94 526.74 1014.94"/><polygon class="cls-5" points="253.19 866.67 240.35 844.45 253.19 822.22 253.19 822.22 266.02 844.45 253.19 866.67 253.19 866.67"/><polygon class="cls-5" points="85.62 515.91 72.78 493.68 85.62 471.46 85.62 471.46 98.45 493.68 85.62 515.91 85.62 515.91"/><polygon class="cls-4" points="323.77 888.89 310.94 866.67 323.77 844.45 323.77 844.45 336.61 866.67 323.77 888.89 323.77 888.89"/><polygon class="cls-4" points="996.4 844.45 983.57 822.22 996.4 800 996.4 800 1009.23 822.22 996.4 844.45 996.4 844.45"/><polygon class="cls-4" points="548.79 857.25 535.96 835.02 548.79 812.8 548.79 812.8 561.62 835.02 548.79 857.25 548.79 857.25"/><polygon class="cls-3" points="783.61 694.38 754.38 643.78 783.61 593.17 842.04 593.17 871.26 643.78 842.04 694.38 783.61 694.38"/><polygon class="cls-2" points="758.4 650.56 729.18 599.96 758.4 549.35 816.83 549.35 846.05 599.96 816.83 650.56 758.4 650.56"/><polygon class="cls-3" points="594.58 744.41 540.06 649.98 594.58 555.56 703.61 555.56 758.13 649.98 703.61 744.41 594.58 744.41"/><polygon class="cls-3" points="539.88 650.53 649.1 649.98 594.96 744.84 539.88 650.53"/><polygon class="cls-3" points="158.4 744.96 267.61 744.41 213.48 839.27 158.4 744.96"/><polygon class="cls-6" points="841.56 718.92 900.96 718.62 871.52 770.21 841.56 718.92"/><polygon class="cls-3" points="376.89 745.14 436.28 744.84 406.84 796.43 376.89 745.14"/><polygon class="cls-3" points="456.23 681.07 515.62 680.77 486.18 732.36 456.23 681.07"/><polygon class="cls-3" points="607.38 864.92 666.78 864.62 637.34 916.21 607.38 864.92"/><polygon class="cls-4" points="456.23 760.91 515.62 760.61 486.18 812.2 456.23 760.91"/><polygon class="cls-4" points="703.1 555.85 757.92 650.32 648.7 650.56 703.1 555.85"/><circle class="cls-3" cx="954.83" cy="413.91" r="51.78"/><circle class="cls-3" cx="1065.48" cy="744.84" r="54.2"/><circle class="cls-2" cx="813.23" cy="883.24" r="58.03"/><circle class="cls-3" cx="289.18" cy="381.9" r="28.08"/><circle class="cls-3" cx="1063.96" cy="599.96" r="73.6"/><circle class="cls-5" cx="431.08" cy="461.13" r="73.6"/><polygon class="cls-4" points="649.12 461.13 594.6 555.56 540.08 461.13 649.12 461.13"/><polygon class="cls-6" points="703.22 461.13 648.7 555.56 594.19 461.13 703.22 461.13"/><polygon class="cls-3" points="594.18 461.13 648.7 366.7 703.22 461.13 594.18 461.13"/><polygon class="cls-3" points="786.47 411.1 816.13 359.72 845.8 411.1 786.47 411.1"/><polygon class="cls-4" points="727.15 353.82 756.81 302.45 786.47 353.82 727.15 353.82"/><polygon class="cls-5" points="376.92 847.91 406.59 796.54 436.25 847.91 376.92 847.91"/><polygon class="cls-3" points="757.74 461.13 703.22 555.56 648.7 461.13 757.74 461.13"/><polygon class="cls-2" points="207.11 566.34 146.36 671.55 85.62 566.34 207.11 566.34"/><polygon class="cls-6" points="267.85 461.13 207.11 566.34 146.36 461.13 267.85 461.13"/><polygon class="cls-3" points="786.63 411.1 757.74 461.13 728.86 411.1 786.63 411.1"/><polygon class="cls-4" points="954.83 411.1 900.32 505.53 845.8 411.1 954.83 411.1"/><circle class="cls-6" cx="708.48" cy="752.5" r="81.69"/><path class="cls-7" d="M954.83,500.28a86.37,86.37,0,1,1,86.37-86.37A86.47,86.47,0,0,1,954.83,500.28Zm0-171.63a85.26,85.26,0,1,0,85.26,85.26A85.35,85.35,0,0,0,954.83,328.66Z"/><path class="cls-7" d="M431.08,569A107.86,107.86,0,1,1,538.94,461.13,108,108,0,0,1,431.08,569Zm0-214.61A106.75,106.75,0,1,0,537.83,461.13,106.87,106.87,0,0,0,431.08,354.38Z"/><path class="cls-8" d="M997.07,646.25h-72.8c-8.6,0-18.1-4.88-18.1-18.4V557.76c0-1.64.68-3.51,2.32-3.51h73c1.65,0,2.66,1.87,2.66,3.51v69.85c0,11.38,9,12.6,12.74,12.6a3.08,3.08,0,0,1,3.06,3A2.94,2.94,0,0,1,997.07,646.25Zm-85.9-85v66.37c0,11.69,10.1,11.63,13.1,11.63h58.45c-2.5-2-3.55-5.94-3.55-11.4v-66.6Z"/><path class="cls-8" d="M995.51,645.93a3,3,0,1,1,0-6c4.71,0,9.64-1.47,9.64-12.36v-6.37H983a3,3,0,0,1,0-6h24.84a3.42,3.42,0,0,1,3.33,3.11v9.47C1011.17,642.79,1002.54,645.93,995.51,645.93Z"/><path class="cls-8" d="M966.61,580.25H932.83a3,3,0,0,1,0-6h33.78a3,3,0,0,1,0,6Z"/><path class="cls-8" d="M966.61,595.25H932.83c-1.64,0-3-1.85-3-3.5s1.34-3.5,3-3.5h33.78c1.65,0,3,1.85,3,3.5S968.25,595.25,966.61,595.25Z"/><path class="cls-8" d="M966.61,609.25H932.83a3,3,0,0,1,0-6h33.78a3,3,0,0,1,0,6Z"/><path class="cls-8" d="M966.61,624.25H932.83a3,3,0,0,1,0-6h33.78a3,3,0,0,1,0,6Z"/><path class="cls-8" d="M920.67,582.36a1.71,1.71,0,0,1-1.21-.5l-3-3a1.71,1.71,0,1,1,2.42-2.42l1.67,1.67,3.79-4.55a1.71,1.71,0,1,1,2.63,2.19l-5,6a1.72,1.72,0,0,1-1.24.61Z"/><path class="cls-8" d="M920.67,597.25c-.45,0-.89-.42-1.21-.75l-3-3.11a1.79,1.79,0,0,1,0-2.48,1.71,1.71,0,0,1,2.42,0l1.67,1.65,3.79-4.56a1.71,1.71,0,1,1,2.63,2.19l-5,6.23c-.31.37-.76.86-1.24.86Z"/><path class="cls-8" d="M920.67,611.17a1.71,1.71,0,0,1-1.21-.5l-3-3a1.71,1.71,0,1,1,2.42-2.42l1.67,1.67,3.79-4.55a1.71,1.71,0,1,1,2.63,2.19l-5,6a1.71,1.71,0,0,1-1.24.61Z"/><path class="cls-8" d="M920.67,625.25a1.59,1.59,0,0,1-1.21-.34l-3-2.91a1.66,1.66,0,0,1,0-2.38,1.71,1.71,0,0,1,2.42,0l1.67,1.68,3.79-4.54A1.71,1.71,0,0,1,927,619l-5,5.83a1.51,1.51,0,0,1-1.24.45Z"/><path class="cls-8" d="M745.79,739.25H671.33a3.38,3.38,0,0,0-3.06,3.88l.83,8.43a3.75,3.75,0,0,0,3.43,3.46,3.62,3.62,0,0,1,3.37,3.37l3,35.89a3.39,3.39,0,0,0,3.17,3h52.61a3.37,3.37,0,0,0,3.17-3l3-35.74a3.75,3.75,0,0,1,3.57-3.4,3.82,3.82,0,0,0,3.63-3.42l.83-8.59A3.4,3.4,0,0,0,745.79,739.25Zm-50.13,46.48a2.48,2.48,0,0,1-2.53,2.52h0a2.75,2.75,0,0,1-2.75-2.52l-1.22-24.33a3,3,0,0,1,2.69-3.16h0a3.26,3.26,0,0,1,2.94,3.16Zm15.18,0a2.61,2.61,0,0,1-2.64,2.52h0a2.61,2.61,0,0,1-2.64-2.52l-.2-24.33a3.1,3.1,0,0,1,2.81-3.16h0a3.11,3.11,0,0,1,2.82,3.16Zm15.56,0a2.75,2.75,0,0,1-2.74,2.52h0a2.48,2.48,0,0,1-2.53-2.52l.84-24.33a3.26,3.26,0,0,1,2.93-3.16h0a3,3,0,0,1,2.69,3.16Z"/><path class="cls-8" d="M696.87,736.92a3.85,3.85,0,0,1-3.27-1.81l-11.29-18.06a3.85,3.85,0,0,1,6.53-4.08L700.13,731a3.85,3.85,0,0,1-3.26,5.89Z"/><path class="cls-8" d="M720.24,736.92A3.85,3.85,0,0,1,717,731L728.27,713a3.85,3.85,0,0,1,6.53,4.08l-11.29,18.06A3.85,3.85,0,0,1,720.24,736.92Z"/><path class="cls-8" d="M379.17,677.62a13.64,13.64,0,0,1-13.64,13.63H281.8a13.64,13.64,0,0,1-13.64-13.63V629.89a13.64,13.64,0,0,1,13.64-13.63h83.73a13.64,13.64,0,0,1,13.64,13.63Zm-3-47.2a8.17,8.17,0,0,0-8.17-8.17H282.34a8.17,8.17,0,0,0-8.17,8.17v46.66a8.17,8.17,0,0,0,8.17,8.17H368a8.17,8.17,0,0,0,8.17-8.17Z"/><rect class="cls-8" x="270.17" y="642.25" width="107" height="16"/><path class="cls-8" d="M321.12,675.25H279.89a3,3,0,0,1,0-6h41.23a3,3,0,0,1,0,6Z"/><path class="cls-8" d="M1093,722.72h-54.19a6.94,6.94,0,0,0-6.94,6.94v29.63a6.94,6.94,0,0,0,6.94,6.94H1093a6.94,6.94,0,0,0,6.94-6.94V729.66A6.94,6.94,0,0,0,1093,722.72Zm-32.36,30.87h-20.35a.7.7,0,1,1,0-1.4h20.35a.7.7,0,1,1,0,1.4Zm7-6.32h-27.37a.7.7,0,1,1,0-1.4h27.37a.7.7,0,1,1,0,1.4Zm24.56-1.2a1.9,1.9,0,0,1-1.89,1.9h-8.84a1.9,1.9,0,0,1-1.9-1.9v-8.84a1.9,1.9,0,0,1,1.9-1.9h8.84a1.89,1.89,0,0,1,1.89,1.9Z"/><rect class="cls-8" x="394.17" y="432.25" width="3" height="55"/><rect class="cls-8" x="437.17" y="432.25" width="3" height="55"/><rect class="cls-8" x="410.17" y="432.25" width="1" height="55"/><rect class="cls-8" x="432.17" y="432.25" width="1" height="55"/><rect class="cls-8" x="414.17" y="432.25" width="3" height="55"/><rect class="cls-8" x="400.17" y="432.25" width="7" height="55"/><rect class="cls-8" x="420.17" y="432.25" width="8" height="55"/><rect class="cls-8" x="443.17" y="432.25" width="4" height="55"/><rect class="cls-8" x="459.17" y="432.25" width="2" height="55"/><rect class="cls-8" x="465.17" y="432.25" width="3" height="55"/><rect class="cls-8" x="449.17" y="432.25" width="7" height="55"/><path class="cls-8" d="M394.49,495.41v0h1.89v.85h-3.06v-.8l1.33-1.27a3.74,3.74,0,0,0,.57-.65,1,1,0,0,0,.16-.55q0-.64-.69-.64a1.73,1.73,0,0,0-1.15.48v-.9a2.46,2.46,0,0,1,1.37-.39,1.61,1.61,0,0,1,1.11.36,1.23,1.23,0,0,1,.4,1,2.38,2.38,0,0,1-1,1.68Z"/><path class="cls-8" d="M402,496.36q-1.66,0-1.66-2.33a3.18,3.18,0,0,1,.45-1.84,1.5,1.5,0,0,1,1.3-.63q1.62,0,1.62,2.37a3.13,3.13,0,0,1-.44,1.81A1.46,1.46,0,0,1,402,496.36Zm0-4c-.44,0-.67.56-.67,1.67s.22,1.57.65,1.57.64-.54.64-1.62S402.45,492.33,402,492.33Z"/><path class="cls-8" d="M410.74,496.28H407.8v-.81h1v-2.9l-1,.21V492l2-.4v3.92h1Z"/><path class="cls-8" d="M417.88,496.28h-2.94v-.81h1v-2.9l-1,.21V492l2-.4v3.92h1Z"/><path class="cls-8" d="M422.06,496.16v-.88a1.91,1.91,0,0,0,1,.29,1,1,0,0,0,.64-.19.65.65,0,0,0,.23-.52q0-.69-1-.69a6.2,6.2,0,0,0-.77.06v-2.6h2.58v.83h-1.7v.93l.39,0a1.59,1.59,0,0,1,1.12.38,1.32,1.32,0,0,1,.4,1,1.49,1.49,0,0,1-.48,1.15,1.86,1.86,0,0,1-1.31.45A2.83,2.83,0,0,1,422.06,496.16Z"/><path class="cls-8" d="M429.2,496.16v-.88a1.9,1.9,0,0,0,1,.29,1,1,0,0,0,.63-.19.65.65,0,0,0,.23-.52q0-.69-1-.69a6.18,6.18,0,0,0-.77.06v-2.6h2.58v.83h-1.7v.93l.39,0a1.59,1.59,0,0,1,1.12.38,1.32,1.32,0,0,1,.4,1,1.49,1.49,0,0,1-.48,1.15,1.85,1.85,0,0,1-1.31.45A2.82,2.82,0,0,1,429.2,496.16Z"/><path class="cls-8" d="M437.7,496.36q-1.66,0-1.66-2.33a3.18,3.18,0,0,1,.45-1.84,1.5,1.5,0,0,1,1.3-.63q1.62,0,1.62,2.37a3.13,3.13,0,0,1-.44,1.81A1.46,1.46,0,0,1,437.7,496.36Zm0-4c-.44,0-.66.56-.66,1.67s.22,1.57.65,1.57.64-.54.64-1.62S438.16,492.33,437.75,492.33Z"/><path class="cls-8" d="M443.43,496.13v-.89a1.8,1.8,0,0,0,1.09.34,1,1,0,0,0,.61-.17.56.56,0,0,0,.22-.47.53.53,0,0,0-.27-.48,1.39,1.39,0,0,0-.74-.17h-.42v-.78h.39q.91,0,.91-.61t-.7-.57a1.59,1.59,0,0,0-.91.3v-.84a2.49,2.49,0,0,1,1.14-.25,1.73,1.73,0,0,1,1.11.32,1,1,0,0,1,.4.83,1.08,1.08,0,0,1-.92,1.14v0a1.25,1.25,0,0,1,.78.36,1,1,0,0,1,.29.73,1.25,1.25,0,0,1-.48,1,2.06,2.06,0,0,1-1.32.38A2.55,2.55,0,0,1,443.43,496.13Z"/><path class="cls-8" d="M450.57,496.13v-.89a1.8,1.8,0,0,0,1.09.34,1,1,0,0,0,.61-.17.56.56,0,0,0,.22-.47.54.54,0,0,0-.27-.48,1.4,1.4,0,0,0-.75-.17h-.42v-.78h.39q.91,0,.91-.61c0-.38-.23-.57-.7-.57a1.58,1.58,0,0,0-.91.3v-.84a2.5,2.5,0,0,1,1.14-.25,1.72,1.72,0,0,1,1.11.32,1,1,0,0,1,.4.83,1.08,1.08,0,0,1-.92,1.14v0a1.25,1.25,0,0,1,.78.36,1,1,0,0,1,.29.73,1.25,1.25,0,0,1-.48,1,2.06,2.06,0,0,1-1.32.38A2.55,2.55,0,0,1,450.57,496.13Z"/><path class="cls-8" d="M460.88,495.29h-.56v1h-.93v-1h-2v-.65l2-3h1v2.93h.56Zm-1.48-2.64h0c0,.08-.09.2-.18.36l-1,1.54h1.18V493.1C459.39,493,459.39,492.82,459.4,492.65Z"/><path class="cls-8" d="M464.91,496.16v-.88a1.91,1.91,0,0,0,1,.29,1,1,0,0,0,.63-.19.65.65,0,0,0,.23-.52q0-.69-1-.69a6.18,6.18,0,0,0-.77.06v-2.6h2.58v.83h-1.7v.93l.39,0a1.59,1.59,0,0,1,1.12.38,1.32,1.32,0,0,1,.41,1,1.49,1.49,0,0,1-.48,1.15,1.86,1.86,0,0,1-1.31.45A2.83,2.83,0,0,1,464.91,496.16Z"/><path class="cls-8" d="M802.75,616.25h-42.9c-2.9,0-5.68-2.29-5.68-5.05V587.43c0-3,3-4.18,5.68-4.18h42.9c2.09,0,5.09.68,6.77,2.61l9.17,10.24a5.8,5.8,0,0,1,0,7.44l-9.11,9.75A10,10,0,0,1,802.75,616.25Zm-42.9-30c-.89,0-2.68,0-2.68,1.18V611.2a4,4,0,0,0,2.68,3.05h42.9c1.15,0,3.25-1.23,4.41-2.53l9.11-10.36a2.73,2.73,0,0,0,0-3.32l-9.17-10.17a6.42,6.42,0,0,0-4.38-1.62Z"/><path class="cls-8" d="M806.91,605a5,5,0,1,1,5-5A5,5,0,0,1,806.91,605Zm0-7.57a2.52,2.52,0,1,0,2.52,2.52A2.53,2.53,0,0,0,806.91,597.46Z"/><path class="cls-8" d="M764.1,604.1v-2a3.77,3.77,0,0,0,1.16.67,3.71,3.71,0,0,0,1.26.22,2.81,2.81,0,0,0,.65-.07,1.5,1.5,0,0,0,.47-.19.82.82,0,0,0,.28-.28.71.71,0,0,0,.09-.35.77.77,0,0,0-.15-.46,1.64,1.64,0,0,0-.4-.37,4.35,4.35,0,0,0-.61-.33l-.76-.33a3.84,3.84,0,0,1-1.54-1,2.29,2.29,0,0,1-.51-1.5,2.4,2.4,0,0,1,.28-1.18,2.34,2.34,0,0,1,.75-.81,3.35,3.35,0,0,1,1.1-.47,5.65,5.65,0,0,1,1.33-.15,7.94,7.94,0,0,1,1.22.08,4.8,4.8,0,0,1,1,.26v1.84a3,3,0,0,0-.48-.27,3.86,3.86,0,0,0-.54-.19,4,4,0,0,0-.55-.11,3.91,3.91,0,0,0-.52,0,2.71,2.71,0,0,0-.61.06,1.55,1.55,0,0,0-.47.18.91.91,0,0,0-.29.28.66.66,0,0,0-.1.37.7.7,0,0,0,.12.4,1.34,1.34,0,0,0,.33.33,3.44,3.44,0,0,0,.52.31l.69.31a7.85,7.85,0,0,1,.95.47,3.34,3.34,0,0,1,.72.56,2.2,2.2,0,0,1,.46.72,2.84,2.84,0,0,1-.12,2.17,2.27,2.27,0,0,1-.76.81,3.32,3.32,0,0,1-1.12.45,6.46,6.46,0,0,1-1.34.13,7.54,7.54,0,0,1-1.38-.12A4.19,4.19,0,0,1,764.1,604.1Z"/><path class="cls-8" d="M780.31,604.44h-2.16l-.63-2h-3.13l-.62,2h-2.15l3.21-8.81h2.35ZM777.06,601l-.95-3a3.83,3.83,0,0,1-.15-.79h0a3.37,3.37,0,0,1-.15.77l-1,3Z"/><path class="cls-8" d="M787.66,604.44h-5.25v-8.81h2v7.2h3.26Z"/><path class="cls-8" d="M795.13,604.44h-5.28v-8.81h5.08v1.62h-3.1v2h2.88v1.61h-2.88v2h3.3Z"/><path class="cls-8" d="M806.91,601.25h-.08a1.43,1.43,0,0,1-1.51-1.5c0-.41.59-10,12-13.67,5.14-1.57,8.44-6.52,8.47-6.57a1.59,1.59,0,0,1,2.21-.44,1.61,1.61,0,0,1,.46,2.22c-.16.24-4,6-10.2,7.91-9.26,2.95-9.79,10.38-9.8,10.7A1.47,1.47,0,0,1,806.91,601.25Z"/><path class="cls-8" d="M556.88,528.25H514.62a3.52,3.52,0,0,1,0-7h42.26a3.52,3.52,0,0,1,0,7Z"/><path class="cls-8" d="M556.88,545.25H514.62c-1.72,0-3.11-.78-3.11-2.5s1.39-2.5,3.11-2.5h42.26c1.72,0,3.11.78,3.11,2.5S558.59,545.25,556.88,545.25Z"/><path class="cls-8" d="M556.88,564.25H514.62a3.52,3.52,0,0,1,0-7h42.26a3.52,3.52,0,0,1,0,7Z"/><path class="cls-8" d="M556.88,582.25H514.62a3,3,0,1,1,0-6h42.26a3,3,0,1,1,0,6Z"/><path class="cls-8" d="M499.41,530.31a2.14,2.14,0,0,1-1.51-.63l-3.75-3.75a2.14,2.14,0,1,1,3-3l2.09,2.09L504,519.3A2.14,2.14,0,0,1,507.3,522l-6.24,7.49a2.14,2.14,0,0,1-1.55.77Z"/><path class="cls-8" d="M499.41,548.33a2.14,2.14,0,0,1-1.51-.63L494.15,544a2.14,2.14,0,0,1,3-3l2.09,2.09,4.74-5.69a2.14,2.14,0,0,1,3.29,2.74l-6.24,7.49a2.14,2.14,0,0,1-1.55.77Z"/><path class="cls-8" d="M499.41,566.35a2.15,2.15,0,0,1-1.51-.63L494.15,562a2.14,2.14,0,1,1,3-3l2.09,2.09,4.74-5.69a2.14,2.14,0,0,1,3.29,2.74l-6.24,7.49a2.15,2.15,0,0,1-1.55.77Z"/><path class="cls-8" d="M828.86,872.11c-4.17-4.16-10.94-3.7-15.11.46h0c-4.17-4.17-10.94-4.62-15.11-.46a10.72,10.72,0,0,0,0,15.13l15.11,15.13,15.12-15.13A10.7,10.7,0,0,0,828.86,872.11Z"/><path class="cls-8" d="M813.75,921.36a37.93,37.93,0,1,1,37.93-37.93A38,38,0,0,1,813.75,921.36Zm0-68.78a30.84,30.84,0,1,0,30.84,30.84A30.88,30.88,0,0,0,813.75,852.59Z"/><polygon class="cls-4" points="1406.13 578.37 1351.61 483.94 1406.13 389.51 1515.16 389.51 1569.68 483.94 1515.16 578.37 1406.13 578.37"/><polygon class="cls-5" points="1569.51 672.79 1514.99 578.37 1569.51 483.94 1678.54 483.94 1733.06 578.37 1678.54 672.79 1569.51 672.79"/><polygon class="cls-3" points="1787.58 672.79 1733.06 578.37 1787.58 483.94 1896.62 483.94 1951.13 578.37 1896.62 672.79 1787.58 672.79"/><polygon class="cls-4" points="1846.03 672.79 1791.51 578.37 1846.03 483.94 1955.07 483.94 2009.59 578.37 1955.07 672.79 1846.03 672.79"/><polygon class="cls-3" points="2324.93 717.87 2291.59 660.12 2324.93 602.36 2391.62 602.36 2424.96 660.12 2391.62 717.87 2324.93 717.87"/><polygon class="cls-2" points="2358.77 773.98 2325.43 716.23 2358.77 658.48 2425.46 658.48 2458.8 716.23 2425.46 773.98 2358.77 773.98"/><polygon class="cls-3" points="2009.37 767.22 1954.85 672.79 2009.37 578.37 2118.41 578.37 2172.93 672.79 2118.41 767.22 2009.37 767.22"/><polygon class="cls-4" points="2118.41 578.37 2063.89 483.94 2118.41 389.51 2227.44 389.51 2281.96 483.94 2227.44 578.37 2118.41 578.37"/><polygon class="cls-6" points="1981.38 630.76 1951.13 578.37 1981.38 525.97 2041.88 525.97 2072.13 578.37 2041.88 630.76 1981.38 630.76"/><polygon class="cls-2" points="1627.21 387.12 1588.8 320.6 1627.21 254.08 1704.02 254.08 1742.42 320.6 1704.02 387.12 1627.21 387.12"/><polygon class="cls-3" points="1704.02 387.12 1665.61 320.6 1704.02 254.08 1704.02 254.08 1742.42 320.6 1704.02 387.12 1704.02 387.12"/><polygon class="cls-6" points="1406.18 389.51 1376.65 338.37 1406.18 287.22 1406.18 287.22 1435.71 338.37 1406.18 389.51 1406.18 389.51"/><polygon class="cls-3" points="2351.74 565.7 2322.22 514.55 2351.74 463.41 2351.74 463.41 2381.27 514.55 2351.74 565.7 2351.74 565.7"/><polygon class="cls-3" points="2430.15 487.29 2400.62 436.14 2430.15 385 2430.15 385 2459.68 436.14 2430.15 487.29 2430.15 487.29"/><polygon class="cls-5" points="1432.11 236.03 1410.06 197.83 1432.11 159.63 1432.11 159.63 1454.16 197.83 1432.11 236.03 1432.11 236.03"/><polygon class="cls-6" points="1892.71 838.39 1870.66 800.19 1892.71 761.99 1892.71 761.99 1914.77 800.19 1892.71 838.39 1892.71 838.39"/><polygon class="cls-6" points="2551.62 640.56 2529.57 602.36 2551.62 564.16 2551.62 564.16 2573.68 602.36 2551.62 640.56 2551.62 640.56"/><polygon class="cls-3" points="1892.71 336 1879.88 313.77 1892.71 291.55 1892.71 291.55 1905.55 313.77 1892.71 336 1892.71 336"/><polygon class="cls-4" points="1918.38 288.1 1905.55 265.88 1918.38 243.66 1918.38 243.66 1931.21 265.88 1918.38 288.1 1918.38 288.1"/><polygon class="cls-4" points="2022.21 250.68 2009.38 228.46 2022.21 206.23 2022.21 206.23 2035.04 228.46 2022.21 250.68 2022.21 250.68"/><polygon class="cls-4" points="2049.99 431.84 2022.21 383.71 2049.99 335.58 2049.99 335.58 2077.78 383.71 2049.99 431.84 2049.99 431.84"/><polygon class="cls-3" points="1940.54 797.23 1912.75 749.1 1940.54 700.97 1940.54 700.97 1968.33 749.1 1940.54 797.23 1940.54 797.23"/><polygon class="cls-4" points="2143.6 870.66 2115.81 822.53 2143.6 774.4 2143.6 774.4 2171.39 822.53 2143.6 870.66 2143.6 870.66"/><polygon class="cls-6" points="2105.57 383.71 2077.78 335.58 2105.57 287.45 2105.57 287.45 2133.36 335.58 2105.57 383.71 2105.57 383.71"/><polygon class="cls-5" points="2118.41 767.22 2063.89 672.79 2118.41 578.37 2118.41 578.37 2172.93 672.79 2118.41 767.22 2118.41 767.22"/><polygon class="cls-3" points="1515.16 578.37 1460.64 483.94 1515.16 389.51 1624.2 389.51 1678.72 483.94 1624.2 578.37 1515.16 578.37"/><polygon class="cls-2" points="1460.38 294.07 1569.6 293.52 1515.46 388.38 1460.38 294.07"/><polygon class="cls-2" points="2256.67 363.45 2365.89 362.9 2311.76 457.76 2256.67 363.45"/><polygon class="cls-2" points="2414.2 543.66 2523.42 543.12 2469.29 637.97 2414.2 543.66"/><polygon class="cls-2" points="1467.07 756.1 1562.9 755.62 1515.4 838.85 1467.07 756.1"/><polygon class="cls-6" points="1705.11 160.93 1764.51 160.64 1735.07 212.22 1705.11 160.93"/><circle class="cls-6" cx="1678.72" cy="483.94" r="72.69"/><circle class="cls-2" cx="2227.44" cy="578.37" r="63.82"/><circle class="cls-6" cx="1429.57" cy="704.52" r="28.08"/><circle class="cls-3" cx="2218.23" cy="275.32" r="54.6"/><circle class="cls-3" cx="1770.5" cy="739.15" r="28.08"/><circle class="cls-3" cx="1819.59" cy="269.39" r="28.08"/><polygon class="cls-2" points="1787.44 483.94 1840.08 392.77 1892.71 483.94 1787.44 483.94"/><polygon class="cls-5" points="1840.08 392.77 1787.44 483.94 1734.81 392.77 1840.08 392.77"/><polygon class="cls-6" points="1842.1 393.67 1871.76 342.3 1901.42 393.67 1842.1 393.67"/><polygon class="cls-5" points="1900.55 365.15 1930.21 313.77 1959.87 365.15 1900.55 365.15"/><polygon class="cls-6" points="2153.11 749.1 2182.77 697.73 2212.44 749.1 2153.11 749.1"/><polygon class="cls-5" points="1956.79 469.88 1996.16 401.68 2035.54 469.88 1956.79 469.88"/><polygon class="cls-3" points="1870.89 444.4 1900.55 393.03 1930.21 444.4 1870.89 444.4"/><polygon class="cls-2" points="2281.96 678.59 2241.25 749.1 2200.54 678.59 2281.96 678.59"/><polygon class="cls-3" points="2118.41 389.51 2063.89 483.94 2172.93 483.94 2227.44 389.51 2118.41 389.51"/><polygon class="cls-3" points="2424.82 425.14 2380.83 348.94 2424.82 272.74 2512.81 272.74 2556.8 348.94 2512.81 425.14 2424.82 425.14"/><polygon class="cls-5" points="2424.82 272.74 2380.83 348.94 2468.81 348.94 2512.81 272.74 2424.82 272.74"/><path class="cls-7" d="M1708.09,724H1540l-.16-.28-83.9-145.33.16-.28L1540,432.76h168.13l.16.28,83.9,145.33-.16.28Zm-167.49-1.11h166.84l83.42-144.49-83.42-144.49H1540.6l-83.42,144.49Z"/><path class="cls-7" d="M2227.44,662.76a84.4,84.4,0,1,1,84.4-84.4A84.49,84.49,0,0,1,2227.44,662.76Zm0-167.68a83.28,83.28,0,1,0,83.28,83.29A83.38,83.38,0,0,0,2227.44,495.08Z"/><path class="cls-7" d="M2071.28,490.52H1921l.64-1.11,74.48-129ZM1923.6,489h145.12l-72.56-125.68Z"/><circle class="cls-8" cx="1652.41" cy="628.24" r="9.91"/><path class="cls-8" d="M1612.95,627.84h25.61a13.82,13.82,0,0,1,1.6-6.08h-31.28A11.16,11.16,0,0,1,1612.95,627.84Zm51.55-107.46a2.92,2.92,0,0,0-4.12-.17l-10,10a3.08,3.08,0,0,0-.8.86,2.68,2.68,0,0,0-.49,2v15.86h-73a2.85,2.85,0,0,0-2.65,2.65,3.93,3.93,0,0,0-.29,3.93l19.43,39.91a3.75,3.75,0,0,0,.54.81,4,4,0,0,0,3.29,1.59h52.63v17a13.58,13.58,0,0,1,3.3-.42,13.92,13.92,0,0,1,3,.34v-81l9.21-9.22A2.91,2.91,0,0,0,1664.5,520.38Zm-54.35,34.78H1626v15.08h-15.82Zm-28.25,0H1603v15.08h-13.78Zm17.61,36.16-7.18-14.74H1603v14.27c0,.16,0,.31,0,.47Zm10.6,0c0-.16,0-.3,0-.47V576.59H1626v14.27c0,.16,0,.31,0,.47Zm39,0h-15.47a3.83,3.83,0,0,0,0-.47V576.59h15.42Zm0-21.08h-15.42V555.17h15.42Z"/><path class="cls-8" d="M1609.75,630.62a7.53,7.53,0,1,1-7.53-7.54A7.53,7.53,0,0,1,1609.75,630.62Z"/><circle class="cls-8" cx="2493.62" cy="395.7" r="7.97"/><path class="cls-8" d="M2461.86,395.37h20.61a11.14,11.14,0,0,1,1.29-4.89h-25.17A9,9,0,0,1,2461.86,395.37Zm41.49-86.48a2.35,2.35,0,0,0-3.32-.14l-8,8a2.45,2.45,0,0,0-.64.69,2.16,2.16,0,0,0-.4,1.59v12.76h-58.71a2.29,2.29,0,0,0-2.14,2.13,3.16,3.16,0,0,0-.24,3.17l15.64,32.11a3,3,0,0,0,.44.65,3.22,3.22,0,0,0,2.65,1.28H2491v13.69a10.93,10.93,0,0,1,2.66-.33,11.19,11.19,0,0,1,2.45.28V319.63l7.41-7.42A2.34,2.34,0,0,0,2503.34,308.9Zm-43.74,28h12.73V349H2459.6Zm-22.74,0h17V349h-11.09ZM2491,349h-12.41V336.89H2491Z"/><path class="cls-8" d="M2459.28,397.61a6.06,6.06,0,1,1-6.06-6.06A6.06,6.06,0,0,1,2459.28,397.61Z"/><path class="cls-8" d="M2442.24,324.12a2.07,2.07,0,0,1-1.47-.61l-5.29-5.29a2.08,2.08,0,0,1,2.94-2.94l5.29,5.29a2.08,2.08,0,0,1-1.47,3.55Z"/><path class="cls-8" d="M2459.32,321a2.48,2.48,0,0,1-2.5-2.08v-7.27a2.54,2.54,0,0,1,5,0v7.27A2.48,2.48,0,0,1,2459.32,321Z"/><path class="cls-8" d="M2475.39,324.12a2.08,2.08,0,0,1-1.47-3.55l5.29-5.29a2.08,2.08,0,0,1,2.94,2.94l-5.29,5.29A2.07,2.07,0,0,1,2475.39,324.12Z"/><polygon class="cls-8" points="1457.82 531.28 1426.82 514.73 1426.82 476.7 1457.82 493.25 1457.82 531.28"/><polygon class="cls-8" points="1465.82 531.28 1495.82 514.73 1495.82 476.7 1465.82 493.25 1465.82 531.28"/><polygon class="cls-8" points="1436.44 436.9 1405.31 453.45 1427.18 473.55 1458.31 457 1436.44 436.9"/><polygon class="cls-8" points="1485.9 438.67 1517.03 455.22 1495.75 473.55 1464.62 457 1485.9 438.67"/><polygon class="cls-8" points="1458.82 462.41 1458.82 487.25 1435 474.83 1458.82 462.41"/><polygon class="cls-8" points="1661.82 366.87 1622.82 345.7 1622.82 297.06 1661.82 318.23 1661.82 366.87"/><polygon class="cls-8" points="1690.82 306.7 1690.82 313.31 1683.82 316.61 1683.82 309.83 1668.82 318.23 1668.82 366.87 1707.82 345.7 1707.82 297.06 1690.82 306.7"/><polygon class="cls-8" points="1644.55 284.14 1625.65 292.11 1665.58 312.52 1682.63 303.75 1644.55 284.14"/><polygon class="cls-8" points="1688.24 300.31 1705.28 292.11 1665.47 275.32 1651.45 281.36 1688.24 300.31"/><path class="cls-8" d="M2026.7,687.72a9.83,9.83,0,1,0,9.83,9.82A9.83,9.83,0,0,0,2026.7,687.72Zm0,14.81a5,5,0,1,1,5-5A5,5,0,0,1,2026.7,702.53Z"/><path class="cls-8" d="M2121.78,638.23h-70v44.71c0,.48.41,2.29-.07,2.29h-.46c-.48,0-1.46-1.8-1.46-2.29V649.23H2026.5a5.06,5.06,0,0,0-4.79,3.82l-3.18,14.66-13.13,3.5c-1.94.53-3.58,3-3.58,5.61V693.1c0,2.61,1.78,5.13,3.72,5.13h7.28v-.69a13,13,0,1,1,26,0v.64H2041a6.55,6.55,0,0,0,1-.09,3.53,3.53,0,0,0,.88.09h44c0-1,0-.64,0-.88a13.08,13.08,0,1,1,26.15.05c0,.24,0-.17,0,.83h8.79c2.22,0,3-2.22,3-4.47V641.9C2124.82,639.65,2124,638.23,2121.78,638.23Zm-82,28.77c0,1.3,1,4.23-.33,4.23h-15.1c-1.32,0-2.2-2-2-3.29l2.48-13.21a2.2,2.2,0,0,1,2.35-1.5h12.59c1.13,0,0-.64,0,.33Z"/><path class="cls-8" d="M2099.93,687.31a9.83,9.83,0,1,0,9.83,9.82A9.83,9.83,0,0,0,2099.93,687.31Zm0,14.81a5,5,0,1,1,5-5A5,5,0,0,1,2099.93,702.13Z"/><path class="cls-8" d="M2375.11,741.83a2.46,2.46,0,0,1-3.47,0l-2.49-2.49a2.44,2.44,0,0,1,0-3.47l40.36-40.36a2.45,2.45,0,0,1,3.47,0l2.49,2.49a2.46,2.46,0,0,1,0,3.47Z"/><circle class="cls-8" cx="2410.29" cy="734.64" r="11.65"/><circle class="cls-8" cx="2375.67" cy="700.01" r="11.65"/><path class="cls-8" d="M2152.54,434.7q13.86,2.17,13.86,10.83v5.77q0,9.39-15.16,9.39v5.06h-4.33V460.7q-15.16,0-15.16-9.39V447H2139v2.89q0,5.06,7.94,5.06V440.68l-1.3-.2q-13.86-2.17-13.86-9.39v-6.5q0-9.38,15.16-9.39v-3.61h4.33v3.61q15.17,0,15.16,9.39v4.34h-7.22V426q0-5.05-7.95-5.06v13.43Zm-6.93-1.07,1.3.2V421Q2139,421,2139,426v2.17Q2139,432.53,2145.61,433.63Zm5.63,21.29q7.51,0,7.51-5.06V447q.15-4.33-6.64-5.43l-.87-.2Z"/><path class="cls-8" d="M1845.6,550.23a6.5,6.5,0,0,0-6.12,4.81l-11.8,52.39a3.78,3.78,0,0,0,3.92,4.81H1877a6.43,6.43,0,0,0,6.05-4.87L1894,555a3.83,3.83,0,0,0-4-4.8Z"/><path class="cls-8" d="M1911.5,610.31a2.49,2.49,0,0,1-1-.21l-11-4.79-8,4.14a2.51,2.51,0,0,1-2.31-4.46l9-4.69a2.51,2.51,0,0,1,2.16-.07l7.76,3.4L1899.49,554a2.51,2.51,0,1,1,4.95-.87l9.54,54.24a2.51,2.51,0,0,1-2.47,2.95Z"/><path class="cls-8" d="M1877.82,558.26c-1.37,0-3-1.11-3-2.49V547.4c0-3.32-1.73-5.17-4.5-5.17h-5.74c-3,0-5.76,2-5.76,5.17v8.37a2.5,2.5,0,0,1-5,0V547.4c0-5.91,5.1-11.17,10.76-11.17h5.74c5.55,0,10.5,5.06,10.5,11.17v8.37C1880.82,557.15,1879.19,558.26,1877.82,558.26Z"/><path class="cls-8" d="M2222.62,595.44a3.72,3.72,0,0,1-2.64-1.09l-14.28-14.28a3.73,3.73,0,0,1,5.27-5.27l11.39,11.39,21.19-25.42a3.73,3.73,0,0,1,5.73,4.77l-23.8,28.56a3.73,3.73,0,0,1-2.7,1.34Z"/><path class="cls-8" d="M2227.38,617.34a39.91,39.91,0,1,1,39.91-39.91A40,40,0,0,1,2227.38,617.34Zm0-72.36a32.45,32.45,0,1,0,32.45,32.45A32.49,32.49,0,0,0,2227.38,545Z"/><path class="cls-8" d="M2225.12,304.23h-21.85c-5.63,0-11.45-3.65-11.45-12.5V245.88c0-1.08,0-1.64,1.13-1.64h47.78c1.08,0,2.1.57,2.1,1.64v39.33a2,2,0,0,1-4,0v-38h-44v44.35c0,7.65,6.49,8.65,8.45,8.65h21.85a2,2,0,0,1,0,4Z"/><path class="cls-8" d="M2231,260.23h-28c-1.08,0-1.95-.42-1.95-1.5s.87-1.5,1.95-1.5h28c1.08,0,1.95.42,1.95,1.5S2232,260.23,2231,260.23Z"/><path class="cls-8" d="M2231,270.23h-28a2,2,0,0,1,0-4h28a2,2,0,0,1,0,4Z"/><path class="cls-8" d="M2231,280.23h-28a2,2,0,0,1,0-4h28a2,2,0,0,1,0,4Z"/><path class="cls-8" d="M2223.17,289.23H2203c-1.08,0-1.95-1.42-1.95-2.5s.87-2.5,1.95-2.5h20.15c1.08,0,2,1.42,2,2.5S2224.25,289.23,2223.17,289.23Z"/><path class="cls-8" d="M2247.46,291.82a5.9,5.9,0,0,0-8.32.25h0a5.8,5.8,0,1,0-8.32,8.07l8.32,8.32,8.32-8.32A5.89,5.89,0,0,0,2247.46,291.82Z"/><ellipse class="cls-9" cx="1288.44" cy="1020.57" rx="367.9" ry="51.56"/><path class="cls-10" d="M1354.39,214.66l16.39,75-17.49-7.12Zm25.16,115.12-15.4,3.07v-.05l6.69-43Zm14.75,67.54,19.63,89.79-15.52,4.06-14-64.8Zm24,109.86,19.13,87.76-22.26-26.25v-.06Zm22.53,180.14-13.38-61.73,24.07,34Zm32.84,73.57,13.92,63.81L1460.19,777Zm13.92,63.81v17.54l-31.47-9.7ZM1163.07,156.44l-43-30.7h62.27Zm46.27,10.42-45.28,30.32h-.11l-3.67-31.47.71-.49,4.82,1.65Zm-147.8-.77,3.73,4.16,6.25,3.4,5.37-1.21,3.18-5.37v-6l-3.07-4.61-6.69-3.73,49.78-27-3.51,36.18-39.69,10.52-39.36,27.3,24-33.66-51.42-14.58,6-15.35,14.8-10.42,30.59,32.67ZM1034,274,1023.6,220.8l13.93-21,18.91,96.87L1034,274.09Zm23.24,119.45v-.05L1070,366.08l13.6,69.51-26.31-42.05Zm9.59,48.79,16.78-6.69,19.84,101.58Zm84.75,341.53L1130.17,768l11.68-33.88ZM1144,839l20.17,9.32-1.64,77.3-6-22.48Zm52.74,1.54-7.35,103.17-25.22-95.39,32.56-7.84Z"/><path class="cls-11" d="M1330.71,136.71l9.65,13.7-6.25,43.31,20.28,20.94-1.09,67.87,17.49,7.13.05.17-6.69,43-10.85-50.27-19.19-88.81-39.41.82Zm63.59,260.62-19.24-14.15-10.91-50.33,15.4-3.07Zm24,109.86-3.13,61.45-16.77-77.46,15.52-4.06Zm33.22,152.4,22.15,101.31L1460.19,777l-19.35-89.69Zm36.07,182.66-6,15.9-25.38-25.55,16.06,34.32-53.62,14.53-50-27.14,87.49-21.76Zm0-17.54-94.51-31.52,67.1-16.17Zm-125.54,9.54-8-5.7,39-35.25-24.4,61-2.53-11.84Zm-6.47,64.31-49.78-15.19h9.65l41.66-11.84-1.48,27Zm-61-704.06-29.11-29.27,52.35-38.7Zm-86.4-38h-45.17l19.29-30.7h43.86Zm15.3,39.36V196l-59.48,1.21,45.28-30.32,3.07-2.52Zm-110.46,2.41-75.54,1.54,39.36-27.3Zm7-72.47,43,30.7-3,3.73v4.17l.17,1.37-47.2,32.51,3.51-36.29,3.51-36.18-49.78,27h-4.17l-4.61,5.7-30.59-32.67Zm-106.41,44.19-3.56-18.42,51.42,14.58-24,33.66-20.23-11.29L1013.68,170ZM1042.9,320,1034,274.09l22.48,22.53v.05l13.54,69.4-12.77,27.35-9.26-47.64Zm40.68,115.56-16.78,6.69h-.05l-9.54-48.68.06-.06Zm28.61,146.59-22.36-21.27,13.65-23.41Zm6,124.39v-.11L1113.62,683l11.67-33.61,16.56,84.7L1130.17,768l-6-30.65v-.05Zm171.75,146.1-93.19-12.17.11-.06,98.08-23.63,1,25.44Z"/><path class="cls-12" d="M1354.39,214.66l-20.28-20.94,6.25-43.31Zm127.19,643.49-9.32,8.77-16.06-34.32Zm-186.66-41.34,60.41-14.52,37.77-9.1,94.51,31.52-31.47,7.84-87.49,21.76,50,27.14-63,17.11,1.48-27,7.68-6.8,3.84-10.42,24.4-61-39,35.25h-10.64l-40,9.87-7.46,3.83Zm60.68,81.74-67.15,18.25,17.37-33.44Zm-24.89-761.84-36,57.83-.06-.05,23.25-68Z"/><path class="cls-13" d="M1322.7,391.29l30.59-108.76,10.85,50.27v.05l10.91,50.33Zm43,72.8,9.43-80.75,9.32,43,14,64.8Zm-10.36,338.19-41.39-49.62,71-78.94,8.11,119.45ZM1113.07,198.22l50.87-1v.05L1113.4,236.7l-75.87-36.95Zm21,99.22,55.26-23.68,28.51,69.4-83.76-45.72,18.42,85.08h-52.63ZM1070,366.08l29.93,16.45-16.34,53.07,55.81,8.33-35.85,93.52-.11-.27-19.84-101.58Z"/><path class="cls-14" d="M1375.11,383.34l-.05-.16,19.24,14.15-9.87,29.05Zm52.35,242.2-12.28-56.84,22.26,26.25,14.09,64.64-24.07-34Zm-201.25-499.8-2.69,70.06-11.13-31.47v-4.6l-4.17-3.29Zm-62.27,71.43-50.87,1-36.18-25.77,39.69-10.52-3.51,36.29,47.2-32.51Zm-126.42,2.58-13.93,21-6.3-32.34Zm29.27,242.52,36.62,94.89.06.27v.05l-13.65,23.41-9-46.6-9-46.49-5-25.55Zm23,118.64,22.36,21.27,13.1,67.16v.11L1113.62,683l-3.24-16.56-8.44-43.14v-.05l-8.72-44.84Zm61.73,222.89,12.61,64.47,25.22,95.39-17-6.58-9.87-11.51,1.64-77.3L1144,839l-6.91-35.52L1130.17,768Z"/><path class="cls-15" d="M1322.7,391.29l52.36-8.11.05.16-9.43,80.75h-25.44l-27.19,57L1213,472.76l127.29-8.66-17.54-72.8-54.38-28.95,26.31-84.2Zm92.48,177.34-102.12-47.53,85.35-29.93Zm-59.86,233.65-60.41,14.52-98.08,23.63,117.1-87.77-12.28-132.45L1385,673.73,1460.19,777l-67.1,16.17L1385,673.73l-71,78.94ZM1189.38,273.76l-76-37.06,50.55-39.47Z"/><path class="cls-16" d="M1313.06,521.11l27.19-57h25.44l32.73,27.08-85.35,29.93,102.12,47.53v.06l12.28,56.84L1385,673.73Zm-89.52-324.92-34.15,77.57-25.43-76.53.11-.05,59.48-1.21Zm71.1,82,58.66,4.39L1322.7,391.29Zm-85,268.52-70.28-102.73,73.51,28.83Z"/><path class="cls-17" d="M1460.19,777,1385,673.73l42.49-48.19v.05l13.38,61.73ZM1037.53,199.75l75.87,36.95-56.91,60-.05-.05Zm96.59,97.69-34.21,85.08,39.47,61.4-55.81-8.33,16.34-53.07L1070,366.08l-13.54-69.4h.05Z"/><path class="cls-18" d="M1362.06,834.24l-18.31,11.41-.33-17.11h10.64Zm-46.6,49.12-19.52-41.12,61.18,29.27Zm-155.2-717.66-.17-1.37v-4.17l3-3.73h45.17l4.17,3.29v4.6l-3.07,2.52H1165.8l-4.82-1.65Zm-83.38,6.74-5.37,1.21-6.25-3.4-3.73-4.16v-7.68l4.61-5.7h4.17l6.69,3.73,3.07,4.61v6Zm-66.77-20.94,3.56,18.42-20.12-11.51,7.46-9.32,15.13-12.94Zm7.18,36.95,6.3,32.34L990.93,186,1013.68,170ZM1034,274.09,1042.9,320l-33-35.52v-.06l8.44-24.72L1034,274ZM1028.31,380l-6.08-31.58,25.71-2.63,9.26,47.64Zm28.89,13.6,9.54,48.68,5,25.55-32.89-33.11v-.05Zm14.2,132.78-9.21,29.27-9.27-48,18.47,18.75,9.38-12.06,9,46.6,3.4,17.54Zm39,140.12-27.74-5L1079.46,645l22.48-21.65Zm-1.7,59.87,9.48-19.79,6,30.76Zm5.7,99.55h-.05l-11.79-61.18,34.54,38.7Zm48.13,99.67-25.33,1.64-.05-.06L1144,839l12.5,64.14,6,22.48,9.87,11.51,17,6.58h-25.22Z"/><path class="cls-19" d="M1357.13,871.52l-61.18-29.27,19.52,41.12h-9.65l-9.32-5.81-6.58-12.61V852.67l6-10.42,47.8,3.4,13.38,25.87,4.94-37.28,4.05,8.22,2.53,11.84-3.84,10.42ZM1034,274l-15.63-14.31,5.26-38.92L999,228l-8.11-42V174l2.63-15.57,20.12,11.51V170L990.93,186l32.67,34.75Zm46.82,240.28-9.38,12.06-18.47-18.75,18.8-39.8L1045.86,471l-7-36.29,32.89,33.11Zm21.16,109-31.3-24.24,22.58-20.61ZM1113.62,683l4.55,23.41-32.4-29.11,24.62-10.86Zm-11.08,81.68,21.66-27.36,6,30.65,6.91,35.41-34.54-38.7-12.94-67.1,19.08,28.73ZM1144,839l-6.85,88.21-2-2.68-5.48-19.19-15.29-79.38h.05Zm1,98.68,17.54-12.06,1.64,18.09Z"/><path class="cls-20" d="M1362.06,834.24l-4.94,37.28-13.37-25.87-47.8-3.4,7.46-3.83,40-9.87.33,17.11ZM1018.34,259.72l-8.44,24.72L999,228Zm3.89,88.65L1042.9,320l5,25.76-25.71,2.63Zm30.7,159.25L1045.86,471l25.88-3.18Zm65.24,198.94-9.48,19.79-19.08-28.73-3.89-20.28h.05l32.4,29.11Z"/><path class="cls-21" d="M1317.88,126.51l-52.35,38.7-39.31-39.47h79.27Zm-23.25,68L1224,196l41.55-30.75,29.11,29.27Zm11.18,688.82-17.37,33.44-99.06,26.86,100.54-78.72,6.58,12.61Z"/><path class="cls-22" d="M1268.32,362.35l-50.44-19.19,76.75-65-70.88-82,.22-.16,70.66-1.43h.06l39.41-.82-39.47,84.42ZM1213,472.76l100.1,48.35-11.4,99.11-92-73.56,3.23-73.9Zm39.58-81.46h70.17l-58.77,43.86L1215.36,408Zm-49.34,302.28,98.46-73.35,12.28,132.45-113.15-4.5Z"/><path class="cls-23" d="M1223.53,196h.06l.16.16,70.88,82-76.75,65,5.65-147Zm29,195.33L1215.36,408l2.52-64.8,50.44,19.19Zm-49.34,302.28,6.47-146.92,92,73.56Zm137-229.48L1213,472.76l51-37.61Zm-26.31,288.57-117.1,87.77h-.11l4.06-92.27Z"/><path class="cls-24" d="M1224,196h-.38l-.06-.16,2.69-70.06,39.31,39.47Zm65.95,656.7v12.27l-100.54,78.72,7.35-103.17Z"/><path class="cls-25" d="M1217.88,343.16l-28.51-69.4,34.15-77.57-5.65,147-2.52,64.8-2.47,64.8-73.51-28.83,76-36-62.82-25.44Zm-78.5,100.76,70.28,102.73-6.47,146.92-77.85-44.19,84.31-102.73-106.13-9.21Zm24.78,404.35-12.61-64.47,49.23-35.63-4.06,92.27Z"/><path class="cls-26" d="M1334.11,193.72l19.19,88.81-58.66-4.39Zm-81.58,197.57,15.79-28.95,54.38,28.95,17.54,72.8-76.31-28.95-51,37.61h-.06l2.47-64.8,48.57,27.19,58.77-43.86ZM1385,673.73l-83.33-53.51,11.4-99.11Z"/><path class="cls-27" d="M1018.34,259.72,999,228l24.56-7.24Zm-8.44,24.78,33,35.52-20.66,28.34Zm47.31,109.09-18.36,41.06L1028.31,380l28.89,13.43v.17Zm5,162,9.21-29.27,21.82,52.08-22.58,20.61,31.3,24.24v.05L1079.46,645Zm48.18,110.85-24.62,10.86h-.05l-3.07-15.9Zm13.82,70.88-21.66,27.36,6.14-38.37,15.51,11Zm-9.81,88.54,22.7-22.47L1144,839Zm22.8,101.31,25.33-1.64L1145,937.64Z"/><path class="cls-28" d="M1189.38,273.76l-55.26,23.68-77.63-.77,56.91-60Zm-36.84,108.76-18.42-85.08,83.76,45.72-65.35,39.36L1215.36,408l-76,36-39.47-61.4Zm-27.19,266.87,77.85,44.19-2.41,54.6-49.23,35.63-9.7-49.66-16.56-84.7.06-.05-.06-.05-13.1-67.16-8.71-44.68.06-.05,106.13,9.21Z"/><path class="cls-29" d="M931.79,122a4.68,4.68,0,0,1,.51,2.17,4.12,4.12,0,0,1-1.54,3.32,4.36,4.36,0,0,1-2,1.41,5.58,5.58,0,0,1-1.28.13,4.8,4.8,0,0,1-1.92-.38,5.39,5.39,0,0,1-1.66-1.15,4.47,4.47,0,0,1-1.28-3.32,4.44,4.44,0,0,1,4.86-4.86,4.5,4.5,0,0,1,3.32,1.28A5.34,5.34,0,0,1,931.79,122Zm10.15,53.68a2.4,2.4,0,0,1,.62-.08,2.17,2.17,0,0,1,1,.23,2,2,0,0,1,.54.39,2.39,2.39,0,0,1,.78,1.71,2.75,2.75,0,0,1-2.33,2.33,2.38,2.38,0,0,1-1.71-.78,2.11,2.11,0,0,1-.62-1.55,2.69,2.69,0,0,1,.62-1.71A2.74,2.74,0,0,1,941.95,175.72ZM980.42,99a2.32,2.32,0,0,1-.47-.37,1.38,1.38,0,0,1-.32-.47,1.53,1.53,0,0,1-.21-.79,1.78,1.78,0,1,1,1.79,1.78A2,2,0,0,1,980.42,99Zm-76,77.86a.94.94,0,0,1,.31.21,1.31,1.31,0,0,1,.42.94,1.49,1.49,0,0,1-1.26,1.26,1.31,1.31,0,0,1-.95-.42,1.13,1.13,0,0,1-.31-.84,1.11,1.11,0,0,1,1.26-1.26A1.32,1.32,0,0,1,904.45,176.81Zm202.23-91.3a2.47,2.47,0,0,1-.42-1.42,2.52,2.52,0,1,1,5,0,3.91,3.91,0,0,1-.05.63,2.6,2.6,0,0,1-.68,1.15,2.45,2.45,0,0,1-1.58.73h-.21a2.43,2.43,0,0,1-1.78-.73A3.18,3.18,0,0,1,1106.68,85.51ZM1265,138.7a2.16,2.16,0,0,1,.42-.74,2.08,2.08,0,0,1,1.37-.53,1.71,1.71,0,0,1,1.26.53,2.54,2.54,0,0,1,.53.74,1.93,1.93,0,0,1,.1.63,1.59,1.59,0,0,1-.63,1.26,1.62,1.62,0,0,1-.21.21,1.51,1.51,0,0,1-1,.42h-.05a1.9,1.9,0,0,1-1.37-.63l-.11-.1a1.86,1.86,0,0,1-.42-1.16A1.86,1.86,0,0,1,1265,138.7Zm102.27-35.6a2.53,2.53,0,0,1-.11-.73,2.1,2.1,0,1,1,3.57,1.47,2.18,2.18,0,0,1-.58.42,2,2,0,0,1-2.36-.42A2.6,2.6,0,0,1,1367.3,103.1Zm53.38,110.16a6,6,0,0,1,2.37-.48,5.15,5.15,0,0,1,3.8,1.52,5.46,5.46,0,0,1,1.7,4,4.87,4.87,0,0,1-1.7,3.8,4.75,4.75,0,0,1-.48.48,4.88,4.88,0,0,1-3.32,1.23,5.5,5.5,0,0,1-3.51-1.23l-.47-.48a5.16,5.16,0,0,1-1.52-3.8,5.82,5.82,0,0,1,1.52-4A5.9,5.9,0,0,1,1420.68,213.26Zm51,68.61a2.8,2.8,0,0,1,1.74-.58,2.84,2.84,0,0,1,0,5.67,2.66,2.66,0,0,1-1.68-.58,2.54,2.54,0,0,1-.31-.26,2.79,2.79,0,0,1,0-4Zm-47.51,68.67a6.11,6.11,0,0,1,.53.47,4.82,4.82,0,0,1,0,6.72,4.41,4.41,0,0,1-.42.37,4.84,4.84,0,0,1-6.2-.26l-.1-.11a4.82,4.82,0,0,1,0-6.72,6.48,6.48,0,0,1,.53-.47,4.95,4.95,0,0,1,5.67,0Zm75.5,103.38a3.61,3.61,0,0,1,2.21-.74,3.44,3.44,0,0,1,2.52,1.05,3.61,3.61,0,0,1,1.15,2.63,3.28,3.28,0,0,1-1.15,2.52,3.38,3.38,0,0,1-2.21,1.15h-.32A3.35,3.35,0,0,1,1500,460a3.77,3.77,0,0,1-.73-.58,3.42,3.42,0,0,1-1.05-2.52,3.78,3.78,0,0,1,1.05-2.62A2.83,2.83,0,0,1,1499.71,453.92ZM1511.94,622a2.68,2.68,0,0,1,1.94.84,2.84,2.84,0,0,1-2,4.83h-.31a2.83,2.83,0,0,1-1.68-.84,3,3,0,0,1-.32-.37,2.63,2.63,0,0,1-.53-1.62,2.86,2.86,0,0,1,.26-1.21,2.94,2.94,0,0,1,.58-.79,3.77,3.77,0,0,1,.42-.37,2.76,2.76,0,0,1,1.58-.47ZM1491.4,730.54a4.92,4.92,0,0,1,2.5,1.35,5.6,5.6,0,0,1,0,7.7,7,7,0,0,1-.67.57,5.27,5.27,0,0,1-3.18,1,5.8,5.8,0,0,1-2.4-.48,6,6,0,0,1-1.44-1.06,5.25,5.25,0,0,1-1.54-3.86v-.39a5.17,5.17,0,0,1,1.54-3.46,5.23,5.23,0,0,1,3.85-1.53A4.83,4.83,0,0,1,1491.4,730.54Zm77.26,126a5,5,0,0,1,2.25-.5,3.7,3.7,0,0,1,2.74,1,4.07,4.07,0,0,1,1.25,3,4.3,4.3,0,0,1-4,4,5.91,5.91,0,0,1-1.25-.13,4.57,4.57,0,0,1-1.75-1.12,3.7,3.7,0,0,1-1-2.75,5.73,5.73,0,0,1,.12-1.25,4.69,4.69,0,0,1,.87-1.74A4.54,4.54,0,0,1,1568.65,856.57Zm-15.55,58.52a2,2,0,0,1,.89.53,2.23,2.23,0,1,1-3.78,1.57,1.88,1.88,0,0,1,.15-.78,1.81,1.81,0,0,1,.48-.79,2.27,2.27,0,0,1,2.25-.53Zm-67.73-24a1.55,1.55,0,0,1-.47.63,1.69,1.69,0,0,1-1.37.63,2,2,0,0,1-1.47-.63l-.05,0a1.88,1.88,0,0,1-.47-1.32,2.25,2.25,0,0,1,.52-1.47,2.57,2.57,0,0,1,.47-.31,2.42,2.42,0,0,1,1-.21,1.87,1.87,0,0,1,1.37.52,2,2,0,0,1,.63,1.47A1.69,1.69,0,0,1,1485.38,891Zm-45,36.5a7.36,7.36,0,1,1-10.65-.36,7.81,7.81,0,0,1,1.35-1.1,6.92,6.92,0,0,1,3.8-1.11,7,7,0,0,1,5.14,2.21Zm-109.62,4.85a8.82,8.82,0,0,1-8.45,8.27,8.3,8.3,0,0,1-6.06-2.57,7.54,7.54,0,0,1-1.47-2,8,8,0,0,1-.92-3.86,8.68,8.68,0,0,1,2.12-5.79l.27-.28a8.61,8.61,0,0,1,6.06-2.38,8.2,8.2,0,0,1,2.76.45,7.55,7.55,0,0,1,3.13,1.93,8.33,8.33,0,0,1,2.57,6.07Zm-102.27,45.23a4,4,0,0,1,.37,1.73,4,4,0,1,1-4.36-4h.37a3.85,3.85,0,0,1,2.83,1.15A4.09,4.09,0,0,1,1228.44,977.62Zm-75.13,1.73a2.5,2.5,0,0,1-2.42,2.41,2.42,2.42,0,0,1-1.79-.73,2.28,2.28,0,0,1-.63-1.68,2.64,2.64,0,0,1,.63-1.78,3.51,3.51,0,0,1,.52-.37,3,3,0,0,1,1.26-.26,2.44,2.44,0,0,1,.89.16,1.9,1.9,0,0,1,.79.47A2.42,2.42,0,0,1,1153.31,979.35Zm-56.69-91.1a5.47,5.47,0,0,1-6.72-8.54,5,5,0,0,1,3-1.48,3.7,3.7,0,0,1,.91-.1,5.23,5.23,0,0,1,3.87,1.59,7.34,7.34,0,0,1,1.14,1.48,6.2,6.2,0,0,1,.45,2.38,5.25,5.25,0,0,1-1.59,3.88A4.55,4.55,0,0,1,1096.62,888.25ZM1075,769.66a7.68,7.68,0,0,1-1.41.12,8.82,8.82,0,0,1-6.39-2.81,8.4,8.4,0,0,1-2.56-6.14,8.74,8.74,0,0,1,9-8.95A8.44,8.44,0,0,1,1078,753a8.85,8.85,0,0,1,4.6,7.8,7.58,7.58,0,0,1-1.15,4.09,8.22,8.22,0,0,1-1.66,2A8,8,0,0,1,1075,769.66Zm77.59-157.19a7.23,7.23,0,0,1-1.5-1.17,6.56,6.56,0,0,1-2-4.82v-.41a6.67,6.67,0,0,1,1.33-3.66,8.82,8.82,0,0,1,.66-.75,6.8,6.8,0,0,1,7.15-1.58,6.33,6.33,0,0,1,2.49,1.58,6.57,6.57,0,0,1,2,4.83,7.58,7.58,0,0,1-.08,1.16,6.53,6.53,0,0,1-1.91,3.66l-.17.17a6.55,6.55,0,0,1-4.66,1.83A6.75,6.75,0,0,1,1152.61,612.47ZM1000,599.77a1.66,1.66,0,0,1-.63,1.26,1.69,1.69,0,0,1-1.36.63,2,2,0,0,1-1.47-.63,1.84,1.84,0,0,1-.52-1.37,2.22,2.22,0,0,1,.52-1.47,2.06,2.06,0,0,1,1.1-.47,1.23,1.23,0,0,1,.37-.05,1.84,1.84,0,0,1,1.36.52,2,2,0,0,1,.63,1.47ZM975.37,483.1a3.11,3.11,0,0,1-.88.13,4.56,4.56,0,0,1-3.27-1.51,4.13,4.13,0,0,1-1.25-3,4.31,4.31,0,0,1,4.53-4.53,4.94,4.94,0,0,1,1.13.13,4.23,4.23,0,0,1,1.89,1.13,9.37,9.37,0,0,1,.88,1,4.46,4.46,0,0,1,.63,2.26,3.61,3.61,0,0,1-1,2.51,3.22,3.22,0,0,1-.5.51A3.79,3.79,0,0,1,975.37,483.1Zm33.72-141.17a3,3,0,0,1-1.31-.79,2.56,2.56,0,0,1-.73-1.89,2.93,2.93,0,0,1,.73-2,2.9,2.9,0,0,1,1-.58,3.11,3.11,0,0,1,1-.16,2.55,2.55,0,0,1,1.89.74,2.79,2.79,0,0,1,.84,2,2.4,2.4,0,0,1-.84,1.89l-.15.16a2.41,2.41,0,0,1-1.74.68A4.27,4.27,0,0,1,1009.08,341.93ZM965.19,225.38a1.88,1.88,0,0,1-.79.16,2.21,2.21,0,1,1,0-4.41,2.27,2.27,0,0,1,1.36.42l.21.21a2.13,2.13,0,0,1,.63,1.57,3.07,3.07,0,0,1-.06.58,2.15,2.15,0,0,1-.58,1A1.86,1.86,0,0,1,965.19,225.38ZM1022,147.62a1.43,1.43,0,0,1-.27-.21,1.84,1.84,0,0,1-.52-1.37,1.82,1.82,0,0,1,2-2,1.85,1.85,0,0,1,1.36.52,2.34,2.34,0,0,1,.26.32,1.91,1.91,0,0,1,.37,1.15,1.83,1.83,0,0,1-.1.63,2.36,2.36,0,0,1-1.89,1.36A1.89,1.89,0,0,1,1022,147.62Zm90.72,26.67h.05a1.56,1.56,0,0,1,1.15.42,1.67,1.67,0,0,1,.47.89,1.18,1.18,0,0,1,.05.37,1.82,1.82,0,0,1-1.62,1.68h-.05a1.72,1.72,0,0,1-1.26-.53,1.56,1.56,0,0,1-.42-1.15,2.37,2.37,0,0,1,.05-.53,2,2,0,0,1,.37-.74A2,2,0,0,1,1112.72,174.29ZM1230.19,36.58a10.21,10.21,0,0,1-1.11-1,5.22,5.22,0,0,1-1.59-3.82,6.33,6.33,0,0,1,1.59-4.14,6.34,6.34,0,0,1,4.14-1.59,5.22,5.22,0,0,1,3.82,1.59,5.78,5.78,0,0,1,1.91,4.14,3.88,3.88,0,0,1-.32,1.59,5,5,0,0,1-1.59,2.23,4.84,4.84,0,0,1-3.82,1.91A5.3,5.3,0,0,1,1230.19,36.58ZM1213,62.9a1.13,1.13,0,0,1,.37.25,3.31,3.31,0,0,1,1,2v.25a2.22,2.22,0,0,1-.75,1.76,1.51,1.51,0,0,1-.25.25,2.39,2.39,0,0,1-2,1,3.12,3.12,0,0,1-2.25-1,2.71,2.71,0,0,1-.75-2,3.66,3.66,0,0,1,.75-2.25,3.68,3.68,0,0,1,2.25-.75A2.58,2.58,0,0,1,1213,62.9Zm94.63-8.46a3.94,3.94,0,0,1,.69-1.28,3.4,3.4,0,0,1,2.17-.79,2.67,2.67,0,0,1,2,.79,3,3,0,0,1,1,2.17,3.48,3.48,0,0,1-3,3,3,3,0,0,1-2.17-1l-.09-.1a2.69,2.69,0,0,1-.69-1.57v-.29A4,4,0,0,1,1307.64,54.44Zm-49,43.27a4.82,4.82,0,0,1,1,3,4.88,4.88,0,0,1-4.53,4.53,4.64,4.64,0,0,1-3.4-1.42,4.19,4.19,0,0,1-1.13-3.11,5.22,5.22,0,0,1,.85-3,2.54,2.54,0,0,1,.28-.42,5.28,5.28,0,0,1,3.4-1.14,4.22,4.22,0,0,1,3.12,1.14C1258.33,97.45,1258.48,97.59,1258.59,97.71ZM1117.71,260.29a3,3,0,0,1,.63,1.89v.16a2.83,2.83,0,0,1-.84,1.94l-.05.05a3,3,0,0,1-4.15-.05,3.34,3.34,0,0,1-.32-.37,2.86,2.86,0,0,1-.53-1.73,2.44,2.44,0,0,1,.11-.74,2.6,2.6,0,0,1,.73-1.37,2.83,2.83,0,0,1,2-.84h.1a2.85,2.85,0,0,1,2.1.84ZM1263,269.37a7,7,0,0,1,6.68-6.49h.18a7,7,0,0,1,6.87,6.86,5.77,5.77,0,0,1-.09,1,6.47,6.47,0,0,1-1.95,3.8,6.59,6.59,0,0,1-4.83,2,6.51,6.51,0,0,1-3.71-1.11,8.27,8.27,0,0,1-1.11-.93,6.6,6.6,0,0,1-2-4.82ZM1366.67,281a4,4,0,0,1,2.21-.63,3.62,3.62,0,0,1,2.42.84l.21.21a3.72,3.72,0,0,1,1.16,2.73,3.4,3.4,0,0,1-1.16,2.63c-.12.13-.25.26-.37.37a3.45,3.45,0,0,1-2.26.79,3.73,3.73,0,0,1-2.73-1.15,3.55,3.55,0,0,1-1.05-2.63,2.43,2.43,0,0,1,.05-.52,3.8,3.8,0,0,1,1-2.21A4.84,4.84,0,0,1,1366.67,281Zm157.09-121.86a2.07,2.07,0,0,1-.42-1.31,2.23,2.23,0,1,1,2.2,2.2,2.51,2.51,0,0,1-.89-.16,2.15,2.15,0,0,1-.68-.47A1.38,1.38,0,0,1,1523.76,159.12Zm-1.84,145.53-.26-.26a2.84,2.84,0,0,1-.84-2.1,2.89,2.89,0,0,1,3-3,2.85,2.85,0,0,1,2.1.84,3,3,0,0,1,.94,2.2,2.69,2.69,0,0,1-.94,2.1,2.33,2.33,0,0,1-.58.47,2.51,2.51,0,0,1-1.52.47A3,3,0,0,1,1521.92,304.65Zm-18.6-95a8.25,8.25,0,0,1,2.19,1.59A7.31,7.31,0,1,1,1493,216.4a7.42,7.42,0,0,1,.6-3,8.19,8.19,0,0,1,1.59-2.19,7.09,7.09,0,0,1,5.17-2.19A7.39,7.39,0,0,1,1503.32,209.64Zm-51.07-17.08a2.39,2.39,0,0,1-.53.63,2.29,2.29,0,0,1-1.79.84,2.61,2.61,0,0,1-1.89-.84,2.43,2.43,0,0,1-.74-1.79,2.52,2.52,0,0,1,2.62-2.62,2.32,2.32,0,0,1,1.63.63.51.51,0,0,1,.16.11,2.61,2.61,0,0,1,.84,1.89A2.19,2.19,0,0,1,1452.25,192.56Zm15.4-23a4,4,0,0,1-.68-.53,6.18,6.18,0,0,1-1.86-4.53,6.37,6.37,0,0,1,6.66-6.66,6.17,6.17,0,0,1,4.53,1.86,6.63,6.63,0,0,1,2.14,4.8,6.06,6.06,0,0,1-.53,2.53,6.85,6.85,0,0,1-1.61,2,5.8,5.8,0,0,1-4.53,2.13A6.18,6.18,0,0,1,1467.65,169.59Zm29.83,5.53a2.86,2.86,0,0,1,.66-1,3,3,0,0,1,2.2-.88,3,3,0,0,1,2.2.88,2.11,2.11,0,0,1,.3.36,3.1,3.1,0,1,1-5.57,1.83A3.11,3.11,0,0,1,1497.48,175.12Zm66.94,127.17a5.88,5.88,0,0,1,6.48-6.47,6.07,6.07,0,0,1,4.5,1.69,6.53,6.53,0,0,1,2,4.78,5.65,5.65,0,0,1-2,4.5,5.54,5.54,0,0,1-4.08,2h-.42a6.51,6.51,0,0,1-4.8-2A6.1,6.1,0,0,1,1564.42,302.29Zm11.36,84.42h.16a3,3,0,1,1-2.94,2.94,4.16,4.16,0,0,1,.1-.95,3,3,0,0,1,.73-1.16,4,4,0,0,1,.58-.47A3.2,3.2,0,0,1,1575.78,386.71Zm-92.45-27.41a5.2,5.2,0,0,1-1.26,2,5,5,0,1,1-3.57-8.61,4.79,4.79,0,0,1,3.21,1.16,2.79,2.79,0,0,1,.37.31,4.86,4.86,0,0,1,1.47,3.57A5.88,5.88,0,0,1,1483.33,359.31Zm-269-3.72a11.61,11.61,0,0,1,1,.9,6,6,0,0,1,0,8.57l-.23.23a5.82,5.82,0,0,1-4.06,1.58,3.8,3.8,0,0,1-.91-.11,5.58,5.58,0,0,1-3.38-1.69,5.79,5.79,0,0,1-1.24-1.8,5.57,5.57,0,0,1-.56-2.49,6.17,6.17,0,0,1,6.09-6.09A6.16,6.16,0,0,1,1214.33,355.59Zm95.22,116.07a2,2,0,0,1,1.37-.52,1.91,1.91,0,0,1,.63.11,2,2,0,0,1,.79.47l.05,0a2,2,0,0,1,.63,1.47,2.18,2.18,0,0,1-.21.94,2.65,2.65,0,0,1-.42.52,2,2,0,0,1-1.47.63,1.9,1.9,0,0,1-.63-.11,2.1,2.1,0,0,1-.84-.53,2,2,0,0,1,0-2.94Zm135.51,67.62a2.72,2.72,0,0,1,.47-.63,3.16,3.16,0,0,1,2.31-.94,3.05,3.05,0,0,1,2,.68,2.39,2.39,0,0,1,.32.26,3.27,3.27,0,0,1-4.62,4.62,3.87,3.87,0,0,1-.58-.74,3.4,3.4,0,0,1-.36-1.57A3,3,0,0,1,1445.06,539.28ZM1542.71,416h-.37a2.88,2.88,0,1,1,2-.84,1.19,1.19,0,0,1-.26.21A2.67,2.67,0,0,1,1542.71,416Zm42.48,56a2.72,2.72,0,0,1-.53-1.68,3.22,3.22,0,0,1,.84-2.2l.26-.21a3.22,3.22,0,0,1,1.94-.63,2.87,2.87,0,0,1,2.1.84,3,3,0,0,1,.94,2.2,3.24,3.24,0,0,1-3,3,3,3,0,0,1-2.21-.95A1.66,1.66,0,0,1,1585.19,472ZM1552,490.25h.42a3.44,3.44,0,0,1,2.52,1,6.08,6.08,0,0,1,.48.53,3.57,3.57,0,0,1,.58,2,3.57,3.57,0,1,1-6.09-2.52A3.58,3.58,0,0,1,1552,490.25Zm19.95,151.52a3,3,0,0,1-.42.53,3.15,3.15,0,0,1-1.63.89,4.61,4.61,0,0,1-.68,0A3.41,3.41,0,0,1,1568,643a3.19,3.19,0,0,1-1.1-.73,3.27,3.27,0,1,1,5.56-2.31A3.07,3.07,0,0,1,1571.95,641.76Zm-183.23-70.35a1.75,1.75,0,0,1,.21.84,1.72,1.72,0,0,1-.16.74,2.15,2.15,0,0,1-.47.52,1.59,1.59,0,0,1-1.26.63,1.91,1.91,0,0,1-1.37-.63l-.05,0a1.73,1.73,0,0,1-.47-1.21,2.58,2.58,0,0,1,.05-.53,2.41,2.41,0,0,1,.47-.84,2.11,2.11,0,0,1,1.37-.52,1.73,1.73,0,0,1,1.26.52A2.89,2.89,0,0,1,1388.72,571.42Zm203.55,178.87a2,2,0,0,1,.47-.06,1.74,1.74,0,0,1,.42.06,1.91,1.91,0,0,1,1.15.58,2.32,2.32,0,0,1,.74,1.67,2,2,0,0,1-.74,1.58,2,2,0,0,1-1.58.73,2.31,2.31,0,0,1-1.68-.73,2.14,2.14,0,0,1-.63-1.58,2.29,2.29,0,0,1,.1-.68,2.43,2.43,0,0,1,.53-1A2.4,2.4,0,0,1,1592.27,750.29Zm15.22-82.9a2.3,2.3,0,0,1-1.21-.63,2.14,2.14,0,0,1-.63-1.58,2.2,2.2,0,0,1,.32-1.2,2.82,2.82,0,0,1,.31-.37,2.23,2.23,0,0,1,3.15,3.15,3,3,0,0,1-.53.42,2.67,2.67,0,0,1-1,.21Zm-74.18,64.05a2.57,2.57,0,0,1,.94.63,2.72,2.72,0,0,1,.84,2,3.16,3.16,0,0,1-.11.84,2.88,2.88,0,0,1-.73,1.16,2.82,2.82,0,1,1-2-4.83A2.67,2.67,0,0,1,1533.31,731.44Zm117.81,21.1a2,2,0,0,1,.63-1.47,1.91,1.91,0,0,1,.53-.37,1.73,1.73,0,0,1,.94-.26,2.08,2.08,0,1,1-2.1,2.1Zm-291.38-29.08a4.08,4.08,0,0,1,.63,2.2V726a4.45,4.45,0,0,1-3.84,3.78h-.26a4,4,0,0,1-2.94-1.26,3.85,3.85,0,0,1-1.15-2.84,4.23,4.23,0,0,1,1.15-2.94,5.12,5.12,0,0,1,1-.73,4.25,4.25,0,0,1,1.89-.42,3.87,3.87,0,0,1,2.83,1.15A6.3,6.3,0,0,1,1359.74,723.46Zm-48-87.84a1.57,1.57,0,0,1,.36,1,1.29,1.29,0,0,1-.52,1,1.23,1.23,0,0,1-.37.31,1.13,1.13,0,0,1-.68.21,1.39,1.39,0,0,1-.74-.21,1.68,1.68,0,0,1-.42-.31,1.41,1.41,0,0,1-.42-1,1.05,1.05,0,0,1,.05-.32,1.7,1.7,0,0,1,.37-.84,1.75,1.75,0,0,1,.79-.37,1.26,1.26,0,0,1,.37,0,1.43,1.43,0,0,1,1.05.41Zm-55.18,89.73a6.36,6.36,0,0,1-.14-1.37,7.17,7.17,0,0,1,2-5l.22-.22a7.25,7.25,0,0,1,4.84-1.8,6.73,6.73,0,0,1,3.39.86,6.85,6.85,0,0,1,1.52,1.15,6.93,6.93,0,0,1,2.16,5,6.42,6.42,0,0,1-1.88,4.62l-.28.29a6.46,6.46,0,0,1-4.91,2.16,6.56,6.56,0,0,1-3.18-.79,7.39,7.39,0,0,1-1.88-1.37A6.51,6.51,0,0,1,1256.53,725.35Zm105.21,82.11h.21a3.58,3.58,0,0,1,3.57,3.57v.26a3.48,3.48,0,0,1-1.05,2.26,3.26,3.26,0,0,1-.68.53,3.35,3.35,0,0,1-1.84.52,3.33,3.33,0,0,1-2.52-1.05,3.56,3.56,0,0,1-.16-4.88l.16-.15A3.47,3.47,0,0,1,1361.74,807.46Zm79.28,9.71a2.57,2.57,0,0,1,.63-1.53,2.52,2.52,0,0,1,1.68-.63,2.17,2.17,0,0,1,1.15.31,1.87,1.87,0,0,1,.42.32,2.3,2.3,0,0,1,.74,1.68,2.52,2.52,0,0,1-.1.74,2.24,2.24,0,0,1-.63.84,2.41,2.41,0,0,1-.47.42,2,2,0,0,1-1.1.31,2.33,2.33,0,0,1-1.68-.73,2.14,2.14,0,0,1-.63-1.58Zm-228.33,7a4.22,4.22,0,0,1,.89.68,3.8,3.8,0,0,1,0,5.46,3.78,3.78,0,0,1-2.36,1.15h-.37a3.46,3.46,0,0,1-1.37-.26,3.79,3.79,0,0,1-1.37-.89,3.91,3.91,0,0,1-.68-.89,3.68,3.68,0,0,1-.47-1.84,4,4,0,0,1,.31-1.57,4.36,4.36,0,0,1,.84-1.16,3.74,3.74,0,0,1,2.73-1.15A3.7,3.7,0,0,1,1212.69,824.21Zm252.73,151.31a3.51,3.51,0,0,1-.93,1.58,3.95,3.95,0,1,1-2.79-6.7,4,4,0,0,1,2.42.75l.37.37a4,4,0,0,1,.93,4Zm27-41.63a1.5,1.5,0,0,1-.26-.21,1.84,1.84,0,0,1-.52-1.37,1.82,1.82,0,0,1,2-2,1.85,1.85,0,0,1,1.36.53,2,2,0,0,1,.63,1.47,1.7,1.7,0,0,1-.63,1.37,1.81,1.81,0,0,1-.73.52,1.77,1.77,0,0,1-.63.11A1.88,1.88,0,0,1,1492.41,933.88Zm28.67-1.64a4.14,4.14,0,0,1,4.46-4.29,4.2,4.2,0,0,1,3.09,1.2,4.46,4.46,0,0,1,1.37,3.26,4.72,4.72,0,0,1-4.46,4.46,4.93,4.93,0,0,1-.94-.09,4.42,4.42,0,0,1-2.31-1.29,4.15,4.15,0,0,1-1.21-3.08Zm-6,53.36a5.84,5.84,0,0,1,2.66,1.58,5.85,5.85,0,1,1-10,4.13,5.21,5.21,0,0,1,.49-2.26,5.84,5.84,0,0,1,1.28-1.87,5.62,5.62,0,0,1,2.76-1.58,4.88,4.88,0,0,1,1.38-.19A5.65,5.65,0,0,1,1515,985.61Zm-442.48-571a5.73,5.73,0,0,1,3.87-1.45,6.22,6.22,0,0,1,4.52,1.94,8.64,8.64,0,0,1,1.29,1.62,6.69,6.69,0,0,1,.65,2.9,6.24,6.24,0,0,1-1.46,4l-.48.48a6.24,6.24,0,0,1-9,0,6.83,6.83,0,0,1-1.13-1.46,6,6,0,0,1-.81-3.06,6.2,6.2,0,0,1,1.94-4.52A2.81,2.81,0,0,1,1072.57,414.57Zm114.55,101,.1-.11a2.21,2.21,0,0,1,1.47-.52h.26a1.86,1.86,0,0,1,1.1.52,2,2,0,0,1,.63,1.47,2.48,2.48,0,0,1-.05.53,1.88,1.88,0,0,1-.58.84,1.71,1.71,0,0,1-1.37.63,2.15,2.15,0,0,1-.68-.11,2.27,2.27,0,0,1-.79-.52,1.85,1.85,0,0,1-.53-1.37A2.33,2.33,0,0,1,1187.12,515.55ZM884.71,291.9a1.37,1.37,0,0,1-.94.32,1.72,1.72,0,0,1-1.26-.52,1.57,1.57,0,0,1-.42-1.15,1.48,1.48,0,0,1,1.68-1.68,1.55,1.55,0,0,1,1.15.42,1.71,1.71,0,0,1,.53,1.26,1.4,1.4,0,0,1-.53,1.15A1.34,1.34,0,0,1,884.71,291.9Zm32.75,2.7h-.1a4,4,0,1,1,3.49-1.94,3.23,3.23,0,0,1-.58.77A3.9,3.9,0,0,1,917.46,294.6Zm38.83,19.26a2.64,2.64,0,0,1,.51-.68,3.62,3.62,0,1,1,2.56,6.14,3.7,3.7,0,0,1-1.79-.43,3.85,3.85,0,0,1-.77-.6,3.7,3.7,0,0,1-.51-4.44ZM920.2,384.3a1.67,1.67,0,0,1,.42.31,2.32,2.32,0,0,1,.74,1.68A2.55,2.55,0,0,1,919,388.6a2.31,2.31,0,0,1-1.68-.74,2.14,2.14,0,0,1-.63-1.58A2.16,2.16,0,0,1,919,384H919A2.13,2.13,0,0,1,920.2,384.3Zm-1.92-41.79h-.08a4.09,4.09,0,0,1-3-1.26,3.83,3.83,0,0,1-1.1-2.83,4.39,4.39,0,0,1,1.1-3,3.33,3.33,0,0,1,.55-.39,4.24,4.24,0,0,1,2.36-.71h.08a3.84,3.84,0,0,1,2.84,1.1,4.08,4.08,0,0,1,1.26,3,4.33,4.33,0,0,1-4,4.1ZM908.31,479a3.43,3.43,0,0,1-2-1,3.69,3.69,0,1,1,6.34-2.61,3.31,3.31,0,0,1-.84,2.23,1.44,1.44,0,0,1-.28.38,3.57,3.57,0,0,1-2.61,1.12A2.34,2.34,0,0,1,908.31,479Zm-4,22.78a2,2,0,0,1,1.21.58,2.29,2.29,0,1,1-1.58-.63A1.19,1.19,0,0,1,904.29,501.74Zm40.06,2.15a1.74,1.74,0,0,1,.31-1,1,1,0,0,1,.11-.16,1.8,1.8,0,0,1,1.16-.42,1.43,1.43,0,0,1,1.05.42,1.61,1.61,0,0,1,.53,1.15,1.86,1.86,0,0,1-1.58,1.57,1.59,1.59,0,0,1-1.16-.53A1.42,1.42,0,0,1,944.35,503.9ZM996,652.22l-.05-.06a2.94,2.94,0,1,1,4.2,0,2.65,2.65,0,0,1-.74.53A2.92,2.92,0,0,1,998,653,2.86,2.86,0,0,1,996,652.22Zm96.34-1.53v-.1a3.56,3.56,0,1,1,3.57,3.57,3.31,3.31,0,0,1-2.26-.84,1.07,1.07,0,0,1-.26-.21A3.42,3.42,0,0,1,1092.3,650.69Zm-52.22,65.61.39.4a8.07,8.07,0,1,1-13.78,5.71,7.47,7.47,0,0,1,.89-3.64,7.36,7.36,0,0,1,1.48-2.07,7.81,7.81,0,0,1,2.46-1.68,7.51,7.51,0,0,1,3.25-.69A7.77,7.77,0,0,1,1040.07,716.3Zm-76.82-26.6a2,2,0,0,1-.52.68,2.11,2.11,0,0,1-1.68.74,2.43,2.43,0,0,1-1.78-.74,2.25,2.25,0,0,1-.63-1.68,2.19,2.19,0,0,1,2.42-2.41,2.3,2.3,0,0,1,1.68.63,2.44,2.44,0,0,1,.73,1.79A2.25,2.25,0,0,1,963.25,689.7Zm44.52,223.13a2.6,2.6,0,0,1-1.36.36,2.72,2.72,0,0,1-2-.84,2.56,2.56,0,0,1-.73-1.89,2.53,2.53,0,0,1,2.73-2.73,2.57,2.57,0,0,1,1.89.73,2.72,2.72,0,0,1,.84,2,2.38,2.38,0,0,1-.84,1.89A2.91,2.91,0,0,1,1007.77,912.84Zm41.37-2.36a2.51,2.51,0,0,1,2.63-2.63,2.44,2.44,0,0,1,1.79.73,2.62,2.62,0,0,1,.84,1.89,2.27,2.27,0,0,1-.84,1.78,3,3,0,0,1-.32.32,2.23,2.23,0,0,1-1.47.53,2.5,2.5,0,0,1-1.53-.53,2.73,2.73,0,0,1-.37-.32A2.42,2.42,0,0,1,1049.14,910.47Zm43.13,57.87a5.17,5.17,0,0,1,3.17-1,5.13,5.13,0,1,1-5.08,5.08,6.31,6.31,0,0,1,.18-1.54,5,5,0,0,1,1.27-2.09Zm-61.63-21a4,4,0,0,1-1.07,1.42,3.87,3.87,0,0,1-3,1.41,4.41,4.41,0,0,1-3.19-1.41,4.11,4.11,0,0,1-1.24-3,4.7,4.7,0,0,1,1.24-3.19,6.7,6.7,0,0,1,1-.71,4.7,4.7,0,0,1,2.21-.53,4,4,0,0,1,2.57.88,2.54,2.54,0,0,1,.44.36,4.39,4.39,0,0,1,1.42,3.19A3.65,3.65,0,0,1,1030.64,947.34ZM1047.58,808a4,4,0,0,1,4.19-4.18,3.9,3.9,0,0,1,2.88,1.15,4.15,4.15,0,0,1,1.3,3,4.47,4.47,0,0,1-4.19,4.19,4.17,4.17,0,0,1-3-1.3A3.92,3.92,0,0,1,1047.58,808Zm-35.19,0a2.2,2.2,0,0,1-.63,1.58l-.21.21a2.28,2.28,0,0,1-1.79.84,2.6,2.6,0,0,1-1.89-.84,2.44,2.44,0,0,1-.73-1.79,2.52,2.52,0,0,1,2.62-2.62,2.43,2.43,0,0,1,1.79.74A2.6,2.6,0,0,1,1012.39,808Zm37.75,32.34a1.76,1.76,0,0,1,.16-.21,2.22,2.22,0,0,1,1.47-.53,1.85,1.85,0,0,1,1.37.53,2,2,0,0,1,.63,1.46,2.18,2.18,0,0,1-2,2,2,2,0,0,1-1.47-.63,1.85,1.85,0,0,1-.53-1.37A2.17,2.17,0,0,1,1050.14,840.33Z"/><path class="cls-30" d="M1510.52,990.63l-46.89-15.12.33-1,46.88,15.13Zm1.81-2.18-18.58-54.08,1-.35,18.59,54.08Zm2.56-.07-1.05-.21,10.6-53.18,1.06.21Zm-294.07-8.5h-67.52v-1.07h67.52Zm7.85-1.78-.47-1,89.52-43.21.47,1Zm-79.5-.63L1094.62,886l.92-.55,54.55,91.46Zm3.11-.18-1-.4L1209,831l1,.4Zm71.63-1.89-13.23-143.85,1.07-.1L1225,975.31Zm239.58-2.56-.86-.65L1492,933.56l.86.65ZM1092.42,972l-63.63-24.83.39-1L1092.81,971Zm.75-1.66-40.37-57.49.88-.62,40.37,57.49ZM1028.53,944l-.88-.63,22.16-31.08.87.62Zm-3.74-.25-17.48-30.6.93-.54,17.48,30.61Zm498-10.86h-27.2v-1.08h27.2Zm-91.14,0H1327.08v-1.08h104.58Zm5.87-2.18-.7-.82,44.84-38.64.71.82Zm-4.81-.76-69.41-115.56.92-.55,69.41,115.56Zm-114.46-.62-105.06-98.55.74-.78L1319,928.51Zm6.08-1.49-1-.33,37-113.19,1,.33Zm225.84-10.9-65-25.36.39-1,65,25.36Zm3.43-1.65-1-.33,17.28-53.39,1,.33ZM1049.14,911h-40v-1.08h40Zm432.93-22.23L1444,819.59l.94-.52L1483,888.26ZM1096.31,883l-.46-1,111.36-53,.46,1Zm-3.49-1.76-19.16-116.66,1.06-.17L1093.88,881Zm476.29-21.16-123.75-41.48.34-1L1569.45,859Zm.4-1.16-78.17-120.44.9-.59,78.17,120.44Zm-519.7-18.14L1011.42,810l.67-.84,38.38,30.77Zm2.5-1.15h-1.08V811h1.08ZM1207,826.53,1076.58,763l.47-1,130.46,63.52Zm6.12-2.08-1-.49,48.46-95.65,1,.49ZM1441,817.71l-75.5-5.88.08-1.07,75.5,5.88Zm4-2.11-.93-.54,44.26-76.91.93.54Zm-86-6.53-92-81.32.71-.81,92,81.32Zm-310.19-.55h-36.33v-1.08h36.33Zm312.47-1-5.2-77.71,1.07-.07,5.2,77.7Zm-283.86-46.77-.2-1.05,181.18-35.23.21,1.06Zm-1.47-2.85-.95-.5L1153.36,610l.95.5Zm575.26-4.81h-56.07V752h56.07Zm-60.75-.71-55.55-17,.32-1,55.55,17ZM1651.8,751l-43.37-83.53,1-.5,43.36,83.53Zm-60.06-.55-22.37-107.1,1.05-.22,22.28,106.68L1607,667.3l1.06.18-14.33,82.9-1-.18Zm-104.68-14.33-126.74-9.55.08-1.07L1487.15,735Zm4.25-3.05-1.06-.21L1511,627.59l1.06.21Zm42.5-1.37-1-.39,34.7-88.42,1,.39ZM1360,723.91l-.59-.9,149.84-97,.59.9Zm-6.13-1.67-43.2-84,1-.49,43.2,84ZM1030.7,721,963,690.19l.45-1L1031.15,720Zm228.84-.44L1158.47,610l.8-.72,101.06,110.52Zm6.86-.79-.95-.51,43.84-81.48.95.51ZM1038,719.5l-.82-.7,56-65.84.82.7Zm-5.46-.79-33.65-65.78,1-.49,33.66,65.78Zm-69.43-31.42-.78-.75,33.23-34.7.78.74Zm642.57-22.86-34-22.21.59-.9,34,22.21Zm-513.38-13.2-91.35-.62v-1.08l91.35.63Zm216.57-14.4-148.79-29.08.21-1.06,148.79,29.08Zm3.18-.79-.69-.82,73.92-62.16.69.82Zm-2.45-.81L1287.37,545,1190.49,518l.29-1,96.68,27,22.31-68.86,1,.33-22.29,68.82,96.85,27-.29,1-96.5-26.9L1310.65,635Zm199.5-11.08-120.54-50.66.42-1,120.54,50.66Zm.78-1.32-60.17-79.22.86-.65,60.16,79.23Zm1.52-.76-9.71-161.5,1.07-.06,9.71,161.5Zm-359.81-15.3L1000,600.3l0-1.08,151.62,6.46Zm.55-2.41L975.65,480.19l.62-.88,176.51,124.17Zm5.75-1.73-1-.37,30.61-83.63,1,.37Zm-160.79-4.8L974.33,480.64l1.06-.21,22.78,117.19ZM1389,571.89l-.49-1,56.23-28.88.49,1Zm55.85-32.13-132.25-65.1.47-1,132.25,65.1Zm5.47-1.09-.91-.58,50.19-78.44.91.58ZM1186.77,516l-109-94.66.71-.81,109,94.66Zm2.72-1-1.06-.15,21.68-151.36,1.06.15ZM944.35,504.44H906.13v-1.08h38.22Zm0-1.11L910.26,477l.66-.85L945,502.48Zm-39.51-1.49-1.06-.19,4.31-24.36,1.06.19Zm650.89-9.57-.6-.9,29.77-19.84.6.89Zm-4.24-2-9.29-74.24,1.07-.13,9.29,74.23Zm-575.08-12.1-.54-.93,98.49-57.18.54.93Zm-.9-1.23-1-.26,34.12-134.93,1,.26Zm337.25-4.91-.77-.71-.93-.28,56.23-183.5,1,.32-56.14,183.22,105.58-113.65.79.73Zm-3.58-.06-96.6-108.78.8-.71L1310,471.3Zm276.19-3.8-41.69-52.5.84-.67,41.69,52.5Zm-86.05-14-75.39-95.82.85-.66,75.39,95.81Zm-420.74-35.12-.43-1,130.15-56.7.43,1Zm-3.78-.83-63.69-76.65.83-.69,63.68,76.65Zm498.17-29.08-89.78-29.4.34-1,89.78,29.4Zm1-1.86-49-82.22.92-.55,49,82.22Zm1.29-.61-4.72-82,1.07-.06,4.72,82Zm-654.58-2.18-.93-.53,38.06-66.63.93.54Zm-2.21-.57-.74-42.84,1.08,0,.73,42.84Zm290.22-24.83-91.61-94.45.77-.75,91.62,94.45Zm4.36-.5-.9-.58,55.18-85.37.9.58Zm269.09-4.46-.83-.68,40.22-49.2.83.68Zm-64-3.33-47.41-63.42.86-.64L1419,350.22Zm6.53,0-.86-.64,47.57-64.15.86.64Zm-412.36-12.8-.64-.87,101-73.71.63.87Zm-4-1.18-43.57-111.3,1-.39,43.58,111.3Zm-92.13-.41-31.87-44.26.87-.63L917,335.84Zm1.47-.78-.74-42.95,1.08,0,.74,42.95ZM957.2,315,919,292.15l.55-.92,38.22,22.89Zm611.29-12.21h-41.58v-1.08h41.58ZM915.16,291.07H885.44V290h29.72Zm555.46-6.41h-98v-1.08h98Zm-105.55-.53-91.45-13.28.15-1.06,91.46,13.28Zm106.23-1.94L1424.47,221l.85-.65,46.83,61.22Zm-99.59-.67-.83-.69,49.82-60.53.83.68Zm-5.47-.24-98.81-140.18.88-.62,98.81,140.18Zm3.18-.94h-1.08l.42-175.88h1l.94-.44,51.56,111.25-1,.45-51.42-111Zm-103.47-10.28-147.63-7.19.05-1.07L1266,269Zm3.27-4.2-2.89-124.64,1.08,0,2.89,124.64ZM1112.43,262l-146-37.54.27-1,146,37.54Zm5.61-1.26-.68-.83,147.24-119.48-150.08,35.74-.25-1,150.58-35.86.22.93.61.75Zm-3.29-1.45-2.47-81.59,1.08,0,2.46,81.59ZM966.2,221.87l-.86-.65,56.23-73.92.85.65Zm530.33-6.56L1452,193l.48-1L1497,214.34Zm5.88-2.26-1-.42,22.73-53,1,.42Zm-1.53-.53h-1.08v-34h1.08ZM1452,189.75l-.84-.68,18.59-22.89.83.68ZM941,178.51H905.18v-1.08H941Zm-36-1.48-1-.43,22.21-50.77,1,.43Zm38.79-.24-1-.46,37.17-77.6,1,.47Zm-2.11-.19-14.18-50.3,1-.29,14.17,50.3ZM1111,176l-86-28.77.34-1,86,28.77Zm387.11,0L1474,166l.41-1,24.09,9.92Zm4.36-.54-.64-.87,21.63-15.86.63.87Zm-390.26-1.09-3.73-87.68,1.08,0,3.73,87.68Zm-87-29-.63-.87,81.85-59.38.63.87Zm239.7-6.12-153.78-54,.36-1,153.78,54Zm3.93,0-.36-1,98.7-35.6.36,1ZM929.47,123.8l-.48-1,50.4-25.2.48,1ZM1253.35,100,1212,66.56l.68-.84,0,0-.1-1,95.22-9.71-73-22.21.31-1,74,22.52-.24.8.08.79.66.81L1256.71,100l-.68-.83L1308.79,56l-96,9.79L1254,99.17Zm-40.84-35.35-.9-.59,20.16-31,.9.59Z"/><circle class="cls-8" cx="1189.09" cy="516.71" r="4.72"/><circle class="cls-8" cx="1287.94" cy="544.39" r="4.72"/><circle class="cls-8" cx="1310.96" cy="636.44" r="6.44"/><circle class="cls-8" cx="1310.96" cy="472.08" r="6.44"/><circle class="cls-8" cx="997.91" cy="598.78" r="5.33"/><circle class="cls-8" cx="1009.85" cy="338.89" r="5.33"/><circle class="cls-8" cx="1024.89" cy="146.03" r="5.33"/><circle class="cls-8" cx="1113.13" cy="175" r="5.33"/><circle class="cls-8" cx="1484.66" cy="890.48" r="5.33"/><circle class="cls-8" cx="1473.61" cy="284.11" r="6.44"/><circle class="cls-8" cx="1115.7" cy="262.33" r="6.44"/><circle class="cls-8" cx="1511.06" cy="623.57" r="6.44"/><circle class="cls-8" cx="1387.46" cy="571.07" r="6.44"/><circle class="cls-8" cx="1442.82" cy="816.71" r="6.44"/><circle class="cls-8" cx="1552.9" cy="915.81" r="6.44"/><circle class="cls-8" cx="1150.85" cy="980.18" r="6.44"/><circle class="cls-8" cx="1652.75" cy="753.42" r="6.44"/><circle class="cls-8" cx="1608.26" cy="666.69" r="6.44"/><circle class="cls-8" cx="1586.37" cy="468.18" r="6.44"/><circle class="cls-8" cx="1267.19" cy="139.59" r="6.44"/><circle class="cls-31" cx="1185.65" cy="516.71" r="23.75"/><path class="cls-29" d="M1198.33,513.5h-9.47V504a1.55,1.55,0,0,0-1.55-1.55H1184a1.55,1.55,0,0,0-1.55,1.55v9.47H1173a1.55,1.55,0,0,0-1.55,1.55v3.32a1.55,1.55,0,0,0,1.55,1.55h9.46v9.47a1.55,1.55,0,0,0,1.55,1.55h3.32a1.55,1.55,0,0,0,1.55-1.55v-9.47h9.47a1.55,1.55,0,0,0,1.55-1.55V515A1.55,1.55,0,0,0,1198.33,513.5Z"/><circle class="cls-31" cx="1511.06" cy="624.27" r="18.61"/><path class="cls-29" d="M1521,621.75h-7.42v-7.42a1.21,1.21,0,0,0-1.21-1.22h-2.6a1.21,1.21,0,0,0-1.21,1.22v7.42h-7.42a1.21,1.21,0,0,0-1.21,1.22v2.6a1.21,1.21,0,0,0,1.21,1.21h7.42v7.42a1.21,1.21,0,0,0,1.21,1.21h2.6a1.22,1.22,0,0,0,1.21-1.21v-7.42H1521a1.22,1.22,0,0,0,1.22-1.21V623A1.22,1.22,0,0,0,1521,621.75Z"/><circle class="cls-31" cx="1050.12" cy="909.37" r="18.61"/><path class="cls-29" d="M1060.05,906.86h-7.42v-7.42a1.22,1.22,0,0,0-1.22-1.22h-2.6a1.22,1.22,0,0,0-1.22,1.22v7.42h-7.42a1.22,1.22,0,0,0-1.22,1.22v2.6a1.22,1.22,0,0,0,1.22,1.21h7.42v7.42a1.22,1.22,0,0,0,1.22,1.21h2.6a1.22,1.22,0,0,0,1.22-1.21v-7.42h7.42a1.21,1.21,0,0,0,1.21-1.21v-2.6A1.21,1.21,0,0,0,1060.05,906.86Z"/><circle class="cls-31" cx="920.54" cy="387.2" r="13.98"/><path class="cls-29" d="M928,385.31h-5.57v-5.57a.91.91,0,0,0-.91-.92h-2a.91.91,0,0,0-.91.92v5.57h-5.57a.91.91,0,0,0-.91.92v2a.91.91,0,0,0,.91.91h5.57v5.57a.91.91,0,0,0,.91.91h2a.91.91,0,0,0,.91-.91v-5.57H928a.91.91,0,0,0,.91-.91v-2A.91.91,0,0,0,928,385.31Z"/><circle class="cls-31" cx="1571.51" cy="302.62" r="10.92"/><path class="cls-29" d="M1577.34,301.14H1573v-4.35a.71.71,0,0,0-.71-.71h-1.53a.71.71,0,0,0-.71.71v4.35h-4.36a.72.72,0,0,0-.71.71v1.53a.71.71,0,0,0,.71.71H1570v4.35a.71.71,0,0,0,.71.71h1.53a.71.71,0,0,0,.71-.71v-4.35h4.36a.71.71,0,0,0,.71-.71v-1.53A.71.71,0,0,0,1577.34,301.14Z"/><circle class="cls-31" cx="963.62" cy="222.73" r="18.61"/><path class="cls-29" d="M973.55,220.21h-7.42v-7.42a1.22,1.22,0,0,0-1.22-1.22h-2.6a1.22,1.22,0,0,0-1.22,1.22v7.42h-7.42a1.22,1.22,0,0,0-1.22,1.22V224a1.22,1.22,0,0,0,1.22,1.22h7.42v7.42a1.22,1.22,0,0,0,1.22,1.21h2.6a1.22,1.22,0,0,0,1.22-1.21v-7.42h7.42a1.22,1.22,0,0,0,1.22-1.22v-2.6A1.22,1.22,0,0,0,973.55,220.21Z"/><circle class="cls-31" cx="1442.82" cy="816.71" r="18.61"/><path class="cls-29" d="M1452.76,814.2h-7.42v-7.42a1.22,1.22,0,0,0-1.22-1.22h-2.6a1.21,1.21,0,0,0-1.21,1.22v7.42h-7.42a1.22,1.22,0,0,0-1.21,1.21V818a1.21,1.21,0,0,0,1.21,1.21h7.42v7.42a1.22,1.22,0,0,0,1.21,1.22h2.6a1.22,1.22,0,0,0,1.22-1.22v-7.42h7.42A1.21,1.21,0,0,0,1454,818v-2.6A1.21,1.21,0,0,0,1452.76,814.2Z"/><circle class="cls-31" cx="1371.79" cy="101.35" r="18.35"/><path class="cls-29" d="M1381.58,98.87h-7.32V91.55a1.2,1.2,0,0,0-1.2-1.2h-2.57a1.2,1.2,0,0,0-1.2,1.2v7.31H1362a1.2,1.2,0,0,0-1.2,1.2v2.56a1.2,1.2,0,0,0,1.2,1.2h7.31v7.32a1.2,1.2,0,0,0,1.2,1.2h2.57a1.2,1.2,0,0,0,1.2-1.2v-7.32h7.32a1.2,1.2,0,0,0,1.2-1.2v-2.56A1.2,1.2,0,0,0,1381.58,98.87Z"/></g></g></svg>