<svg xmlns="http://www.w3.org/2000/svg" xmlns:xlink="http://www.w3.org/1999/xlink" viewBox="0 0 192 100"><defs><clipPath id="a"><rect x="19.77" y="23.28" width="151.71" height="52.29" fill="none"/></clipPath><clipPath id="b"><rect x="19.77" y="23.28" width="151.71" height="58.75" fill="none"/></clipPath></defs><title>cms-logo-only</title><g clip-path="url(#a)"><path d="M37.89,71.11c-7.25-3.41-11.34-7.85-11.11-13,.66-14.5,35-29.38,76.5-33.12a191.74,191.74,0,0,1,34.52-.16,181.61,181.61,0,0,0-41.54-.67C54.8,27.88,20.43,42.76,19.78,57.25c-.32,7.12,7.54,12.86,20.53,16.41Z" fill="#00529b" fill-rule="evenodd"/></g><g clip-path="url(#b)"><path d="M35.49,66.27a9.42,9.42,0,0,1-3.09-7.13C33,45.78,64.82,32.07,103.32,28.6c5.89-.53,11.74-.8,17.38-.8a135.46,135.46,0,0,1,28.52,2.75l.13-.55c-8.64-2.25-19.44-3.44-31.25-3.44-5.59,0-11.39.27-17.23.79-38.31,3.45-70,17.23-70.57,30.71-.17,3.7,1.94,7,6.24,9.94Z" fill="#f0cb00"/><path d="M69,67.59C58.15,67.59,49.4,62.53,49.4,55S58.15,42.38,69,42.38A26.42,26.42,0,0,1,82.44,45.8l-4.33,3.08a16,16,0,0,0-8.32-2.49c-5,0-8.27,2.57-8.27,8.59s3.23,8.51,8.27,8.51a16,16,0,0,0,8.32-2.42l4.33,3.08A26.06,26.06,0,0,1,69,67.59" fill="#00529b"/><polygon points="118.17 66.82 118.17 52.03 109.76 66.82 102.4 66.82 92.82 52.03 92.82 66.82 85.52 66.82 85.52 43.16 99.69 43.16 108.84 57.39 117.01 43.16 129.5 43.16 129.5 66.82 118.17 66.82" fill="#00529b"/><path d="M149.07,67.59c-8.23,0-13.41-2.79-15.41-4.66l4.42-2.86a20.14,20.14,0,0,0,11,3.74c3.66,0,5.47-.66,5.47-1.8,0-2.09-4.33-2.6-8.75-3.56-6.56-1.43-11.46-3.19-11.46-7.71,0-5.58,6.7-8.33,15.17-8.33,6.13,0,10.27,1.21,13.79,3.71L159,48.84a19.32,19.32,0,0,0-9.37-2.72c-3.9,0-5.42.84-5.42,1.95,0,1.72,3.42,1.91,8.89,3.12,6.8,1.51,11.89,3.63,11.89,8.22,0,5-6,8.18-15.93,8.18" fill="#00529b"/><path d="M48.11,74.83a1.88,1.88,0,0,0-.13.49,2.49,2.49,0,0,1-1.16.25,1.91,1.91,0,0,1-2.11-1.91A2,2,0,0,1,47,71.48a2.57,2.57,0,0,1,1.16.28,2.09,2.09,0,0,0-.13.58h-.08a1.17,1.17,0,0,0-1-.51c-.61,0-1.3.53-1.3,1.74s.7,1.64,1.35,1.64a1.53,1.53,0,0,0,1-.43Z" fill="#00529b"/><path d="M48.78,73.14c0-.64,0-1.08,0-1.58l1,0c.56,0,1,0,1.19,0a1.32,1.32,0,0,0,0,.24,1.52,1.52,0,0,0,0,.26L49.65,72c0,.42,0,.83,0,1.24l1.3,0a1.32,1.32,0,0,0,0,.26,1.82,1.82,0,0,0,0,.23c-.43,0-.86-.05-1.3-.05,0,.24,0,.48,0,.73s0,.49,0,.71A11.24,11.24,0,0,0,50.94,75a1.46,1.46,0,0,0,0,.26,1.22,1.22,0,0,0,0,.25c-.21,0-.47,0-1,0-.93,0-1.08,0-1.21,0,0-.5,0-.94,0-1.58Z" fill="#00529b"/><path d="M51.71,71.56l.26,0,.26,0c.82.91,1.64,1.81,2.48,2.72,0-.91,0-2.46,0-2.72l.26,0,.26,0c-.09,1.66-.09,2.42-.09,3.94l-.23,0a1,1,0,0,0-.22,0q-1.17-1.39-2.49-2.77c0,.43,0,.9,0,1.33,0,.91,0,1.23,0,1.44l-.27,0-.26,0c0-.16.11-1.64.11-2.8,0-.51,0-.86,0-1.14" fill="#00529b"/><path d="M56.8,72.49a3.67,3.67,0,0,0,0-.5c-.22,0-.7,0-1,.07a1.11,1.11,0,0,0,0-.5c.52,0,.78,0,1.48,0s1,0,1.45,0a1.11,1.11,0,0,0,0,.5,10.06,10.06,0,0,0-1-.07c0,.08,0,.29,0,.5v1.43c0,.64,0,1.08,0,1.58-.13,0-.28,0-.47,0s-.34,0-.47,0c0-.5,0-.94,0-1.58Z" fill="#00529b"/><path d="M59.25,73.14c0-.64,0-1.08,0-1.58l1,0c.56,0,1,0,1.19,0a1.27,1.27,0,0,0,0,.24,1.46,1.46,0,0,0,0,.26L60.13,72c0,.42,0,.83,0,1.24l1.3,0a1.36,1.36,0,0,0,0,.26,1.72,1.72,0,0,0,0,.23c-.43,0-.86-.05-1.3-.05,0,.24,0,.48,0,.73s0,.49,0,.71A11.25,11.25,0,0,0,61.42,75a1.4,1.4,0,0,0,0,.26,1.17,1.17,0,0,0,0,.25c-.21,0-.47,0-1,0-.93,0-1.08,0-1.21,0,0-.5,0-.94,0-1.58Z" fill="#00529b"/><path d="M63.06,73.68H63v.23c0,.64,0,1.08,0,1.58-.13,0-.28,0-.47,0s-.34,0-.47,0c0-.5,0-.94,0-1.58v-.78c0-.64,0-1.08,0-1.58.13,0,.28,0,.47,0s.45,0,.84,0a1.53,1.53,0,0,1,1,.19.89.89,0,0,1,.37.75,1,1,0,0,1-.89,1.05c.37.64.8,1.3,1.22,1.94l-.51,0-.52,0Zm0-1.8c0,.52,0,1,0,1.55h.13a.71.71,0,0,0,.78-.82c0-.67-.26-.75-.89-.75" fill="#00529b"/><path d="M67.33,72.33a.68.68,0,0,0-.69-.49.55.55,0,0,0-.59.51c0,.85,1.74.63,1.74,1.93a1.34,1.34,0,0,1-1.51,1.29,1.63,1.63,0,0,1-.92-.25,5.67,5.67,0,0,0,.17-.73h.11a.75.75,0,0,0,.79.62.59.59,0,0,0,.67-.58c0-.86-1.7-.63-1.7-1.93a1.2,1.2,0,0,1,1.28-1.22,1.47,1.47,0,0,1,.94.28c-.07.18-.11.31-.18.56Z" fill="#00529b"/><path d="M70,73.14c0-.64,0-1.08,0-1.58l1,0c.56,0,1,0,1.19,0a1.27,1.27,0,0,0,0,.24,1.46,1.46,0,0,0,0,.26L70.91,72c0,.42,0,.83,0,1.24l1.3,0a1.36,1.36,0,0,0,0,.26,1.72,1.72,0,0,0,0,.23c-.43,0-.86-.05-1.3-.05v.29c0,.64,0,1.08,0,1.58-.13,0-.28,0-.47,0s-.34,0-.47,0c0-.5,0-.94,0-1.58Z" fill="#00529b"/><path d="M74.83,71.48a2,2,0,0,1,2.16,2,2.08,2.08,0,0,1-2.18,2.05,1.94,1.94,0,0,1-2.18-2,2.06,2.06,0,0,1,2.19-2m0,.33c-.78,0-1.24.79-1.24,1.77,0,1.22.56,1.64,1.2,1.64s1.28-.57,1.28-1.82c0-1-.51-1.59-1.24-1.59" fill="#00529b"/><path d="M78.6,73.68h-.05v.23c0,.64,0,1.08,0,1.58-.13,0-.28,0-.47,0s-.34,0-.47,0c0-.5,0-.94,0-1.58v-.78c0-.64,0-1.08,0-1.58.13,0,.28,0,.47,0s.45,0,.84,0a1.53,1.53,0,0,1,1,.19.89.89,0,0,1,.37.75,1,1,0,0,1-.88,1.05c.36.64.8,1.3,1.22,1.94l-.51,0-.52,0Zm0-1.8c0,.52,0,1,0,1.55h.13a.71.71,0,0,0,.78-.82c0-.67-.26-.75-.89-.75" fill="#00529b"/><path d="M83.24,72.9c-.12.86-.17,1.73-.23,2.59l-.27,0-.27,0c.24-1.31.43-2.63.59-3.94l.23,0,.23,0c.42.91.9,1.92,1.32,2.73.45-.85.92-1.82,1.33-2.73l.24,0,.24,0c.15,1.31.35,3.13.49,3.94l-.46,0-.47,0c0-.79-.14-1.76-.23-2.65h0c-.43.88-.85,1.76-1.26,2.65h-.22c-.41-.86-.82-1.73-1.24-2.59Z" fill="#00529b"/><path d="M87.81,73.14c0-.64,0-1.08,0-1.58l1,0c.56,0,1,0,1.19,0a1.32,1.32,0,0,0,0,.24,1.52,1.52,0,0,0,0,.26L88.68,72c0,.42,0,.83,0,1.24l1.3,0a1.33,1.33,0,0,0,0,.26,1.75,1.75,0,0,0,0,.23c-.43,0-.86-.05-1.3-.05,0,.24,0,.48,0,.73s0,.49,0,.71A11.24,11.24,0,0,0,90,75a1.46,1.46,0,0,0,0,.26,1.22,1.22,0,0,0,0,.25c-.21,0-.47,0-1,0-.93,0-1.08,0-1.21,0,0-.5,0-.94,0-1.58Z" fill="#00529b"/><path d="M90.71,73.14c0-.64,0-1.08,0-1.58.13,0,.28,0,.47,0s.53,0,1,0c1.3,0,2.2.42,2.2,1.86a2,2,0,0,1-2,2.08c-.57,0-1,0-1.26,0s-.34,0-.47,0c0-.5,0-.94,0-1.58Zm.84.9c0,.31,0,1,0,1.11l.5,0c.86,0,1.4-.58,1.4-1.77,0-.94-.52-1.52-1.31-1.52a5.14,5.14,0,0,0-.59,0c0,.11,0,.8,0,1.11Z" fill="#00529b"/><path d="M95.18,73.14c0-.64,0-1.08,0-1.58.13,0,.28,0,.47,0s.34,0,.47,0c0,.5,0,.94,0,1.58v.78c0,.64,0,1.08,0,1.58-.13,0-.28,0-.47,0s-.34,0-.47,0c0-.5,0-.94,0-1.58Z" fill="#00529b"/><path d="M100.15,74.83a1.9,1.9,0,0,0-.13.49,2.5,2.5,0,0,1-1.17.25,1.91,1.91,0,0,1-2.11-1.91A2,2,0,0,1,99,71.48a2.57,2.57,0,0,1,1.17.28,2.07,2.07,0,0,0-.13.58H100a1.17,1.17,0,0,0-1-.51c-.61,0-1.3.53-1.3,1.74s.7,1.64,1.35,1.64a1.52,1.52,0,0,0,1-.43Z" fill="#00529b"/><path d="M103.95,75.5l-.5,0-.49,0c-.12-.39-.25-.78-.39-1.17h-1.32a11.17,11.17,0,0,0-.39,1.17l-.27,0-.29,0c.28-.63,1.14-2.67,1.63-4l.22,0,.22,0c.48,1.3,1.15,3,1.59,4M102.44,74c-.17-.46-.33-.91-.51-1.36-.19.45-.37.9-.54,1.36Z" fill="#00529b"/><path d="M105.43,73.68h-.05v.23c0,.64,0,1.08,0,1.58-.13,0-.28,0-.47,0s-.34,0-.47,0c0-.5,0-.94,0-1.58v-.78c0-.64,0-1.08,0-1.58.13,0,.28,0,.47,0s.45,0,.84,0a1.53,1.53,0,0,1,1,.19.89.89,0,0,1,.37.75,1,1,0,0,1-.89,1.05c.37.64.8,1.3,1.22,1.94l-.51,0-.52,0Zm0-1.8c0,.52,0,1,0,1.55h.13a.71.71,0,0,0,.78-.82c0-.67-.26-.75-.88-.75" fill="#00529b"/><path d="M108,73.14c0-.64,0-1.08,0-1.58l1,0c.56,0,1,0,1.19,0a1.38,1.38,0,0,0,0,.24,1.58,1.58,0,0,0,0,.26L108.85,72c0,.42,0,.83,0,1.24l1.3,0a1.29,1.29,0,0,0,0,.26,1.75,1.75,0,0,0,0,.23c-.43,0-.86-.05-1.3-.05,0,.24,0,.48,0,.73s0,.49,0,.71a11.23,11.23,0,0,0,1.31-.07,1.52,1.52,0,0,0,0,.26,1.27,1.27,0,0,0,0,.25c-.21,0-.47,0-1,0-.93,0-1.08,0-1.21,0,0-.5,0-.94,0-1.58Z" fill="#00529b"/><path d="M114.55,75.12a2.11,2.11,0,0,1-1.28.45,1,1,0,0,1-1.08-.92c0-.59.41-.9,1-1.22a1.66,1.66,0,0,1-.42-.94.93.93,0,0,1,1.05-.91c.53,0,.93.24.93.7s-.23.66-.73,1c.29.38.59.74.9,1.1a5.42,5.42,0,0,0,.68-1.1,4.54,4.54,0,0,0,.31.33,8,8,0,0,1-.79,1c.24.29.59.66.85.92l-.7,0-.47,0Zm-.77,0a.93.93,0,0,0,.61-.22c-.34-.42-.69-.84-1-1.26a.86.86,0,0,0-.43.69.81.81,0,0,0,.83.79m.11-2.1a1.07,1.07,0,0,0,.46-.79.41.41,0,0,0-.41-.42.38.38,0,0,0-.41.41,1.61,1.61,0,0,0,.35.79" fill="#00529b"/><path d="M118.64,72.9c-.12.86-.17,1.73-.23,2.59l-.27,0-.27,0c.24-1.31.43-2.63.59-3.94l.23,0,.23,0c.42.91.9,1.92,1.32,2.73.45-.85.92-1.82,1.33-2.73l.25,0,.24,0c.15,1.31.35,3.13.49,3.94l-.46,0-.47,0c0-.79-.14-1.76-.23-2.65h0c-.43.88-.85,1.76-1.26,2.65h-.22c-.41-.86-.82-1.73-1.24-2.59Z" fill="#00529b"/><path d="M123.21,73.14c0-.64,0-1.08,0-1.58l1,0c.56,0,1,0,1.19,0a1.33,1.33,0,0,0,0,.24,1.52,1.52,0,0,0,0,.26L124.08,72c0,.42,0,.83,0,1.24l1.3,0a1.29,1.29,0,0,0,0,.26,1.66,1.66,0,0,0,0,.23c-.43,0-.86-.05-1.3-.05,0,.24,0,.48,0,.73s0,.49,0,.71a11.23,11.23,0,0,0,1.31-.07,1.47,1.47,0,0,0,0,.26,1.23,1.23,0,0,0,0,.25c-.21,0-.47,0-1,0-.93,0-1.08,0-1.21,0,0-.5,0-.94,0-1.58Z" fill="#00529b"/><path d="M126.11,73.14c0-.64,0-1.08,0-1.58.13,0,.28,0,.47,0s.53,0,1,0c1.3,0,2.2.42,2.2,1.86a2,2,0,0,1-2,2.08c-.57,0-1,0-1.26,0s-.34,0-.47,0c0-.5,0-.94,0-1.58Zm.84.9c0,.31,0,1,0,1.11l.5,0c.86,0,1.4-.58,1.4-1.77,0-.94-.52-1.52-1.31-1.52a5.13,5.13,0,0,0-.59,0c0,.11,0,.8,0,1.11Z" fill="#00529b"/><path d="M130.58,73.14c0-.64,0-1.08,0-1.58.13,0,.28,0,.47,0s.34,0,.47,0c0,.5,0,.94,0,1.58v.78c0,.64,0,1.08,0,1.58-.13,0-.28,0-.47,0s-.34,0-.47,0c0-.5,0-.94,0-1.58Z" fill="#00529b"/><path d="M135.55,74.83a1.86,1.86,0,0,0-.13.49,2.5,2.5,0,0,1-1.16.25,1.91,1.91,0,0,1-2.11-1.91,2,2,0,0,1,2.27-2.18,2.57,2.57,0,0,1,1.16.28,2.07,2.07,0,0,0-.13.58h-.08a1.17,1.17,0,0,0-1-.51c-.61,0-1.3.53-1.3,1.74s.7,1.64,1.35,1.64a1.52,1.52,0,0,0,1-.43Z" fill="#00529b"/><path d="M139.35,75.5l-.5,0-.48,0c-.12-.39-.25-.78-.39-1.17h-1.32a11.56,11.56,0,0,0-.39,1.17l-.27,0-.29,0c.28-.63,1.14-2.67,1.63-4l.22,0,.22,0c.49,1.3,1.15,3,1.59,4M137.84,74c-.17-.46-.33-.91-.51-1.36-.19.45-.37.9-.54,1.36Z" fill="#00529b"/><path d="M140,73.14c0-.64,0-1.08,0-1.58.13,0,.28,0,.47,0s.34,0,.47,0c0,.5,0,.94,0,1.58v.78c0,.64,0,1.08,0,1.58-.13,0-.28,0-.47,0s-.34,0-.47,0c0-.5,0-.94,0-1.58Z" fill="#00529b"/><path d="M141.84,73.14c0-.64,0-1.08,0-1.58.13,0,.28,0,.47,0s.53,0,1,0c1.3,0,2.2.42,2.2,1.86a2,2,0,0,1-2,2.08c-.57,0-1,0-1.26,0s-.34,0-.47,0c0-.5,0-.94,0-1.58Zm.85.9c0,.31,0,1,0,1.11l.5,0c.86,0,1.4-.58,1.4-1.77,0-.94-.52-1.52-1.31-1.52a5.13,5.13,0,0,0-.59,0c0,.11,0,.8,0,1.11Z" fill="#00529b"/><path d="M149.55,72.33a.68.68,0,0,0-.69-.49.55.55,0,0,0-.59.51c0,.85,1.74.63,1.74,1.93a1.34,1.34,0,0,1-1.51,1.29,1.63,1.63,0,0,1-.92-.25,5.58,5.58,0,0,0,.17-.73h.11a.75.75,0,0,0,.79.62.59.59,0,0,0,.67-.58c0-.86-1.7-.63-1.7-1.93a1.2,1.2,0,0,1,1.28-1.22,1.48,1.48,0,0,1,.94.28c-.07.18-.11.31-.18.56Z" fill="#00529b"/><path d="M150.67,73.14c0-.64,0-1.08,0-1.58l1,0c.56,0,1,0,1.19,0a1.33,1.33,0,0,0,0,.24,1.52,1.52,0,0,0,0,.26L151.55,72c0,.42,0,.83,0,1.24l1.3,0a1.29,1.29,0,0,0,0,.26,1.75,1.75,0,0,0,0,.23c-.43,0-.86-.05-1.3-.05,0,.24,0,.48,0,.73s0,.49,0,.71a11.23,11.23,0,0,0,1.31-.07,1.47,1.47,0,0,0,0,.26,1.23,1.23,0,0,0,0,.25c-.21,0-.47,0-1,0-.93,0-1.08,0-1.21,0,0-.5,0-.94,0-1.58Z" fill="#00529b"/><path d="M154.48,73.68h-.05v.23c0,.64,0,1.08,0,1.58-.13,0-.28,0-.47,0s-.34,0-.47,0c0-.5,0-.94,0-1.58v-.78c0-.64,0-1.08,0-1.58.13,0,.28,0,.47,0s.45,0,.84,0a1.53,1.53,0,0,1,1,.19.89.89,0,0,1,.37.75,1,1,0,0,1-.89,1.05c.37.64.8,1.3,1.22,1.94l-.51,0-.52,0Zm0-1.8c0,.52,0,1,0,1.55h.13a.71.71,0,0,0,.78-.82c0-.67-.26-.75-.88-.75" fill="#00529b"/><path d="M159.69,71.56l.25,0,.25,0c-.38.9-1.12,2.63-1.56,3.94l-.25,0-.25,0c-.35-1-1.18-3.07-1.55-3.94l.51,0,.5,0c.26.85.67,1.91,1,2.87.39-1,.78-2,1.08-2.87" fill="#00529b"/><path d="M160.8,73.14c0-.64,0-1.08,0-1.58.13,0,.28,0,.47,0s.34,0,.47,0c0,.5,0,.94,0,1.58v.78c0,.64,0,1.08,0,1.58-.13,0-.28,0-.47,0s-.34,0-.47,0c0-.5,0-.94,0-1.58Z" fill="#00529b"/><path d="M165.77,74.83a1.93,1.93,0,0,0-.13.49,2.5,2.5,0,0,1-1.16.25,1.91,1.91,0,0,1-2.11-1.91,2,2,0,0,1,2.27-2.18,2.57,2.57,0,0,1,1.16.28,2.13,2.13,0,0,0-.13.58h-.08a1.17,1.17,0,0,0-1-.51c-.61,0-1.3.53-1.3,1.74s.7,1.64,1.35,1.64a1.52,1.52,0,0,0,1-.43Z" fill="#00529b"/><path d="M166.43,73.14c0-.64,0-1.08,0-1.58l1,0c.56,0,1,0,1.19,0a1.32,1.32,0,0,0,0,.24,1.52,1.52,0,0,0,0,.26L167.31,72c0,.42,0,.83,0,1.24l1.3,0a1.28,1.28,0,0,0,0,.26,1.72,1.72,0,0,0,0,.23c-.43,0-.86-.05-1.3-.05,0,.24,0,.48,0,.73s0,.49,0,.71A11.25,11.25,0,0,0,168.6,75a1.46,1.46,0,0,0,0,.26,1.22,1.22,0,0,0,0,.25c-.21,0-.47,0-1,0-.93,0-1.08,0-1.21,0,0-.5,0-.94,0-1.58Z" fill="#00529b"/><path d="M171,72.33a.68.68,0,0,0-.69-.49.55.55,0,0,0-.59.51c0,.85,1.74.63,1.74,1.93A1.34,1.34,0,0,1,170,75.57a1.63,1.63,0,0,1-.92-.25,5.75,5.75,0,0,0,.17-.73h.11a.75.75,0,0,0,.79.62.59.59,0,0,0,.67-.58c0-.86-1.7-.63-1.7-1.93a1.2,1.2,0,0,1,1.28-1.22,1.48,1.48,0,0,1,.94.28c-.07.18-.11.31-.18.56Z" fill="#00529b"/></g></svg>