<svg xmlns="http://www.w3.org/2000/svg" viewBox="0 0 194 100"><title>gsa-logo-only</title><polygon points="53.75 7.38 139.01 7.38 139.01 92.63 53.75 92.63 53.75 7.38 53.75 7.38" fill="#fff" fill-rule="evenodd"/><polygon points="57.58 88.87 135.18 88.87 135.18 11.14 57.58 11.14 57.58 88.87 57.58 88.87" fill="#015992" fill-rule="evenodd"/><path d="M104.54,68.49c0,5.44-4.3,7.72-9.24,7.6A21.1,21.1,0,0,1,90,74.94L90.36,71a16.55,16.55,0,0,0,5.32,1.39c2.28-.13,4.56-1.14,4.56-3.67,0-2-1.65-3-3.17-3.8-3.42-1.77-7.34-2.91-7.34-7.72,0-4.56,3.67-7,8.1-7a15.31,15.31,0,0,1,5.57,1l-.63,3.8A10.24,10.24,0,0,0,98,53.93c-1.9,0-3.92.76-3.92,2.91,0,1.77,1.77,2.66,3.17,3.42,3.67,1.77,7.34,3.29,7.34,8.23Z" fill="#fff" fill-rule="evenodd"/><path d="M84.16,74.94a23.76,23.76,0,0,1-7.85,1.14c-7.85,0-13.17-5.06-13.17-13,0-7.72,5.7-12.79,13.29-12.79a19.86,19.86,0,0,1,7.47,1.27l-.38,4.3a11,11,0,0,0-7-1.9c-5.44,0-9,3.92-9,9.24,0,5.7,3.92,9.24,8.86,9.24A13.78,13.78,0,0,0,80,72V65.57H75.3V61.9h8.86v13Z" fill="#fff" fill-rule="evenodd"/><polygon points="118.47 49.62 124.55 63.04 120.37 63.04 118.47 58.61 116.7 63.04 112.52 63.04 118.47 49.62 118.47 49.62" fill="#fff" fill-rule="evenodd"/><polygon points="124.55 63.17 130.12 75.58 125.81 75.58 121.64 65.95 124.55 63.17 124.55 63.17" fill="#fff" fill-rule="evenodd"/><polygon points="112.52 63.17 115.43 65.95 113.28 71.02 118.47 68.23 121.51 70.51 111.13 75.58 106.95 75.58 112.52 63.17 112.52 63.17" fill="#fff" fill-rule="evenodd"/></svg>