<svg xmlns="http://www.w3.org/2000/svg" viewBox="0 0 192.4 100"><title>northrop-logo-only</title><polygon points="19.9 38.25 18.02 42.32 15.34 38.33 15.41 38.25 12.16 38.25 8.32 46.46 11.58 46.46 13.53 42.25 16.36 46.46 19.32 46.46 23.16 38.25 19.9 38.25 19.9 38.25" fill="#026bb2" fill-rule="evenodd"/><polygon points="8.32 46.46 12.16 38.18 15.34 38.18 18.02 42.32 19.97 38.18 23.16 38.18 19.32 46.46 16.36 46.46 13.53 42.25 11.58 46.46 8.32 46.46 8.32 46.46" fill="#026bb2" fill-rule="evenodd"/><polygon points="167 46.46 170.83 38.18 173.94 38.18 176.69 42.32 178.57 38.18 181.83 38.18 178 46.46 174.96 46.46 172.21 42.25 170.18 46.46 167 46.46 167 46.46" fill="#026bb2" fill-rule="evenodd"/><path d="M108.32,46.17a12.42,12.42,0,0,1-1.74.29,18.92,18.92,0,0,1-2,.07,10.89,10.89,0,0,1-1.66-.15,5.42,5.42,0,0,1-1.3-.51,2.57,2.57,0,0,1-1.16-1.53,3.13,3.13,0,0,1,.22-2.11,6.3,6.3,0,0,1,1.16-1.67,8.56,8.56,0,0,1,1.74-1.38,14.26,14.26,0,0,1,2.24-.87,9.13,9.13,0,0,1,2.46-.29,14.05,14.05,0,0,1,1.81.15,13.48,13.48,0,0,1,1.59.51l-.87,2a9.65,9.65,0,0,0-1.3-.51,8,8,0,0,0-1.37-.15,5.27,5.27,0,0,0-2.39.58,3.71,3.71,0,0,0-1.52,1.67,1.55,1.55,0,0,0,0,1.6,1.92,1.92,0,0,0,1.59.65.91.91,0,0,0,.43-.07.43.43,0,0,0,.29-.07l.51-.94h-1.3l.94-1.67h3.69l-2.1,4.43Z" fill="#026bb2" fill-rule="evenodd"/><path d="M89.43,39.71h.72a1.5,1.5,0,0,1,1.09.29c.14.15.14.44-.07.8a1.37,1.37,0,0,1-.8.87A2.42,2.42,0,0,1,89,42h-.65l1.09-2.25Zm-3.11,6.75,1.37-3h1.09a8.36,8.36,0,0,0,3.55-.65,4.24,4.24,0,0,0,2-2c.43-.87.36-1.53-.14-2a5,5,0,0,0-3-.65H86.76l-3.83,8.28Z" fill="#026bb2" fill-rule="evenodd"/><polygon points="50.36 46.46 54.34 38.18 57.81 38.18 56.37 41.23 59.98 41.23 61.43 38.18 64.98 38.18 61 46.46 57.45 46.46 58.9 43.41 55.35 43.41 53.84 46.46 50.36 46.46 50.36 46.46" fill="#026bb2" fill-rule="evenodd"/><polygon points="43.56 46.46 46.53 40.29 43.56 40.29 44.57 38.18 53.91 38.18 52.82 40.29 49.86 40.29 46.82 46.46 43.56 46.46 43.56 46.46" fill="#026bb2" fill-rule="evenodd"/><path d="M26.49,40.94a3.43,3.43,0,0,1,1.66-.51,1.62,1.62,0,0,1,1.23.51,1.52,1.52,0,0,1,0,1.38,3.3,3.3,0,0,1-1.16,1.31,2.81,2.81,0,0,1-1.66.51,1.4,1.4,0,0,1-1.23-.51,1.38,1.38,0,0,1,0-1.31,3.06,3.06,0,0,1,1.16-1.38ZM21.64,44a2.13,2.13,0,0,0,.58,1.38,3.12,3.12,0,0,0,1.37.94,6.94,6.94,0,0,0,2,.29,11.85,11.85,0,0,0,2.24-.29,7.77,7.77,0,0,0,2.1-.94A6.93,6.93,0,0,0,31.62,44a6.3,6.3,0,0,0,1.16-1.67,4,4,0,0,0,.29-1.74,2.13,2.13,0,0,0-.58-1.38,3.43,3.43,0,0,0-1.3-.87,5.68,5.68,0,0,0-2-.29,7.93,7.93,0,0,0-2.24.29,10.65,10.65,0,0,0-2.1.87A9.11,9.11,0,0,0,23,40.58a7.07,7.07,0,0,0-1.09,1.74A3.55,3.55,0,0,0,21.64,44Z" fill="#026bb2" fill-rule="evenodd"/><path d="M78.07,40.94a3.43,3.43,0,0,1,1.66-.51,1.35,1.35,0,0,1,1.16.51A1.32,1.32,0,0,1,81,42.32a4,4,0,0,1-1.16,1.31,2.81,2.81,0,0,1-1.66.51,1.32,1.32,0,0,1-1.23-.51,1.38,1.38,0,0,1,0-1.31,2.67,2.67,0,0,1,1.16-1.38ZM73.23,44a2.13,2.13,0,0,0,.58,1.38,2.89,2.89,0,0,0,1.3.94,8,8,0,0,0,2,.29,12.65,12.65,0,0,0,2.24-.29,7.77,7.77,0,0,0,2.1-.94A6.94,6.94,0,0,0,83.21,44a6.3,6.3,0,0,0,1.16-1.67,4,4,0,0,0,.29-1.74,2.13,2.13,0,0,0-.58-1.38,3.73,3.73,0,0,0-1.37-.87,5.27,5.27,0,0,0-2-.29,7.6,7.6,0,0,0-2.24.29,10.65,10.65,0,0,0-2.1.87,9.13,9.13,0,0,0-1.81,1.38,7.08,7.08,0,0,0-1.09,1.74A2.84,2.84,0,0,0,73.23,44Z" fill="#026bb2" fill-rule="evenodd"/><path d="M123,38.18h3.4l-2,4.43c-.29.58-.36,1-.14,1.31s.51.44,1.16.44a2.6,2.6,0,0,0,2.53-1.74l2-4.43h3.4l-2,4.5a6.15,6.15,0,0,1-2.68,2.9,8.73,8.73,0,0,1-4.34,1c-1.66,0-2.82-.36-3.4-1s-.58-1.6,0-2.9l2.1-4.5Z" fill="#026bb2" fill-rule="evenodd"/><path d="M163.67,40.36l-.07,3.12h-2.82l2.89-3.12ZM158,46.46l1.3-1.45h4.27v1.45h3.26l-.43-8.28h-3.47l-8.25,8.28Z" fill="#026bb2" fill-rule="evenodd"/><path d="M43.05,38.76a5.46,5.46,0,0,0-3.11-.58H35.31l-3.83,8.28h3.4L36.54,43h.94c.87.07,1.16,1.09,1.16,2.76v.73H41.9l-.14-2.61a2,2,0,0,0-.22-.94,1.06,1.06,0,0,0-.43-.36,3.94,3.94,0,0,0,1.3-.8,3.49,3.49,0,0,0,.87-1.16,1.39,1.39,0,0,0-.22-1.82Zm-3,2a1.33,1.33,0,0,1-.8.73,4.58,4.58,0,0,1-1.66.29H37l1.09-2.25h.65a2.33,2.33,0,0,1,1.23.29,1,1,0,0,1,.14.94Z" fill="#026bb2" fill-rule="evenodd"/><path d="M73.66,38.76a5.46,5.46,0,0,0-3.11-.58H66l-3.91,8.28h3.4L67.15,43h.94c.87.07,1.23,1.09,1.23,2.76,0,.15-.07.44-.07.73H72.5l-.07-2.61a3.62,3.62,0,0,0-.29-.94.74.74,0,0,0-.43-.36,3.32,3.32,0,0,0,1.3-.8,3.5,3.5,0,0,0,.87-1.16,1.39,1.39,0,0,0-.22-1.82Zm-3,2a1.33,1.33,0,0,1-.8.73,4.45,4.45,0,0,1-1.59.29h-.72l1.09-2.25h.65a2.14,2.14,0,0,1,1.23.29c.22.15.29.51.14.94Z" fill="#026bb2" fill-rule="evenodd"/><path d="M120.83,38.76c-.51-.44-1.52-.58-3.11-.58h-4.56l-3.91,8.28h3.47L114.4,43h.94c.87.07,1.16,1.09,1.16,2.76v.73h3.26l-.14-2.61a3.6,3.6,0,0,0-.22-.94,1.06,1.06,0,0,0-.43-.36,3,3,0,0,0,1.23-.8,2.26,2.26,0,0,0,.87-1.16c.43-.8.36-1.38-.22-1.82Zm-2.89,2c-.07.29-.51.58-.8.73a4.58,4.58,0,0,1-1.66.29h-.65l1.09-2.25h.65a2.33,2.33,0,0,1,1.23.29,1,1,0,0,1,.14.94Z" fill="#026bb2" fill-rule="evenodd"/><polygon points="130.39 46.46 134.22 38.18 137.4 38.18 138.49 41.45 142.47 38.18 145.65 38.18 141.82 46.46 138.56 46.46 140.73 41.74 136.68 45.08 135.67 41.88 133.57 46.46 130.39 46.46 130.39 46.46" fill="#026bb2" fill-rule="evenodd"/><polygon points="142.76 46.46 146.66 38.18 149.85 38.18 150.86 41.45 154.84 38.18 158.1 38.18 154.26 46.46 150.93 46.46 153.18 41.74 149.13 45.08 148.11 41.88 145.94 46.46 142.76 46.46 142.76 46.46" fill="#026bb2" fill-rule="evenodd"/><path d="M26,68.39C57.6,46,152.82,49.29,184.07,49.15" fill="none" stroke="#026bb2" stroke-miterlimit="2.61" stroke-width="0.27"/></svg>